<svg width="32" height="32" viewBox="0 0 32 32" fill="none" xmlns="http://www.w3.org/2000/svg">
<path fill-rule="evenodd" clip-rule="evenodd" d="M16 32C24.8366 32 32 24.8366 32 16C32 7.16344 24.8366 0 16 0C7.16344 0 0 7.16344 0 16C0 24.8366 7.16344 32 16 32Z" fill="white"/>
<path fill-rule="evenodd" clip-rule="evenodd" d="M16 30C23.732 30 30 23.732 30 16C30 8.26801 23.732 2 16 2C8.26801 2 2 8.26801 2 16C2 23.732 8.26801 30 16 30Z" fill="#3BE6AF"/>
<path fill-rule="evenodd" clip-rule="evenodd" d="M10.125 22C8.95285 22 8 21.125 8 20.0495V12.9002C8 11.8246 8.95285 10.9497 10.125 10.9497H12.5789L13.786 9.28914C13.8999 9.13203 14.0826 9.0284 14.2874 9.00501L14.375 9H18.625C18.8622 9 19.0831 9.1078 19.2141 9.28915L20.4202 10.9497H22.875C23.9995 10.9497 24.932 11.7561 24.9966 12.7857L25 12.9002V20.0495C25 21.125 24.0463 22 22.875 22L10.125 22ZM9.41695 12.9002V20.0495C9.41695 20.408 9.73485 20.6997 10.125 20.6997H22.875C23.2652 20.6997 23.583 20.408 23.583 20.0495V12.9002C23.583 12.5417 23.2652 12.25 22.875 12.25H20.042C19.8048 12.25 19.5838 12.1422 19.4521 11.9608L18.2451 10.3003H14.7541L13.5479 11.9608C13.4332 12.1179 13.2505 12.2216 13.0464 12.245L12.958 12.25H10.125C9.73485 12.25 9.41695 12.5417 9.41695 12.9002ZM12.958 16.1502C12.958 14.3576 14.5475 12.9002 16.5 12.9002C18.4524 12.9002 20.0411 14.3576 20.0411 16.1502C20.0411 17.9419 18.4524 19.4002 16.5 19.4002C14.5475 19.4002 12.958 17.9419 12.958 16.1502ZM14.375 16.1502C14.375 17.2249 15.3287 18.0998 16.5 18.0998C17.6721 18.0998 18.625 17.2249 18.625 16.1502C18.625 15.0746 17.6721 14.2005 16.5 14.2005C15.3287 14.2005 14.375 15.0746 14.375 16.1502Z" fill="white"/>
</svg>
