<svg width="58" height="58" viewBox="0 0 58 58" fill="none" xmlns="http://www.w3.org/2000/svg">
<path fill-rule="evenodd" clip-rule="evenodd" d="M53.1664 28.9997C53.1664 27.6658 54.249 26.5832 55.5828 26.5832C56.9171 26.5832 57.9998 27.6658 57.9998 28.9997C57.9998 44.9907 44.9907 57.9998 28.9997 57.9998C13.0086 57.9998 0 44.9907 0 28.9997C0 13.0087 13.0086 0 28.9997 0C36.7849 0 44.093 3.04384 49.5762 8.56946C50.5177 9.51669 50.5115 11.0465 49.5643 11.9866C48.6156 12.9267 47.0859 12.9219 46.1458 11.9732C41.5759 7.36957 35.4873 4.83344 28.9996 4.83344C15.6744 4.83344 4.83292 15.6745 4.83292 28.9997C4.83292 42.3254 15.6744 53.1664 28.9996 53.1664C42.3253 53.1664 53.1664 42.3254 53.1664 28.9997ZM27.7912 31.623L38.166 21.2496C39.1085 20.3057 40.6407 20.3057 41.5832 21.2496C42.5271 22.1931 42.5271 23.7228 41.5832 24.6667L29.5002 36.7501C29.0288 37.2225 28.4101 37.458 27.7912 37.458C27.173 37.458 26.5541 37.2225 26.0827 36.7501L20.0413 30.7082C19.0974 29.7647 19.0974 28.235 20.0413 27.291C20.9837 26.3476 22.5158 26.3476 23.4583 27.291L27.7912 31.623Z" fill="white"/>
</svg>
