<svg width="70" height="57" viewBox="0 0 70 57" fill="none" xmlns="http://www.w3.org/2000/svg">
<mask id="mask0_0_145" style="mask-type:alpha" maskUnits="userSpaceOnUse" x="0" y="0" width="70" height="58">
<path fill-rule="evenodd" clip-rule="evenodd" d="M0 0H69.4406V57.0004H0V0Z" fill="white"/>
</mask>
<g mask="url(#mask0_0_145)">
<path fill-rule="evenodd" clip-rule="evenodd" d="M18.2478 42.1884L18.5348 41.5441C18.8928 41.8312 19.4605 42.0353 20.0091 42.0353C20.7052 42.0353 20.9986 41.7865 20.9986 41.4548C20.9986 40.4908 18.3442 41.1224 18.3442 39.4631C18.3442 38.7429 18.9176 38.1298 20.1431 38.1298C20.6797 38.1298 21.241 38.2702 21.6295 38.5253L21.3679 39.1696C20.9667 38.9336 20.5266 38.8188 20.1367 38.8188C19.4478 38.8188 19.1671 39.0867 19.1671 39.4255C19.1671 40.376 21.8152 39.7565 21.8152 41.3974C21.8152 42.1119 21.2347 42.7243 20.0091 42.7243C19.3138 42.7243 18.6178 42.5074 18.2478 42.1884" fill="#3BE6AF"/>
<path fill-rule="evenodd" clip-rule="evenodd" d="M22.7131 40.4273C22.7131 39.1068 23.7338 38.1308 25.1188 38.1308C26.5031 38.1308 27.5245 39.1004 27.5245 40.4273C27.5245 41.7549 26.5031 42.7245 25.1188 42.7245C23.7338 42.7245 22.7131 41.7485 22.7131 40.4273ZM26.6888 40.4273C26.6888 39.5151 26.0189 38.858 25.1188 38.858C24.2193 38.858 23.5488 39.5151 23.5488 40.4273C23.5488 41.3403 24.2193 41.9973 25.1188 41.9973C26.019 41.9973 26.6888 41.3403 26.6888 40.4273Z" fill="#3BE6AF"/>
<path fill-rule="evenodd" clip-rule="evenodd" d="M28.7987 38.1938H29.628V41.959H31.9635V42.6607H28.7987L28.7987 38.1938Z" fill="#3BE6AF"/>
<path fill-rule="evenodd" clip-rule="evenodd" d="M32.9128 40.7143V38.1938H33.7421V40.6824C33.7421 41.6018 34.1575 41.9973 34.8776 41.9973C35.5992 41.9973 36.0074 41.6018 36.0074 40.6824V38.1938H36.8247V40.7143C36.8247 42.0164 36.0904 42.7245 34.8719 42.7245C33.6464 42.7245 32.9128 42.0164 32.9128 40.7143" fill="#3BE6AF"/>
<path fill-rule="evenodd" clip-rule="evenodd" d="M39.2034 38.8955H37.7234V38.1938H41.5141V38.8955H40.0334V42.6607H39.2034L39.2034 38.8955Z" fill="#3BE6AF"/>
<path fill-rule="evenodd" clip-rule="evenodd" d="M42.5338 38.1938H43.5345V42.6607H42.5338V38.1938Z" fill="#3BE6AF"/>
<path fill-rule="evenodd" clip-rule="evenodd" d="M44.6447 40.4273C44.6447 39.1068 45.6654 38.1308 47.0503 38.1308C48.4346 38.1308 49.456 39.1004 49.456 40.4273C49.456 41.7549 48.4346 42.7245 47.0503 42.7245C45.6654 42.7245 44.6447 41.7485 44.6447 40.4273ZM48.6196 40.4273C48.6196 39.5151 47.9498 38.858 47.0503 38.858C46.1509 38.858 45.4803 39.5151 45.4803 40.4273C45.4803 41.3403 46.1509 41.9973 47.0503 41.9973C47.9498 41.9973 48.6196 41.3403 48.6196 40.4273Z" fill="#3BE6AF"/>
<path fill-rule="evenodd" clip-rule="evenodd" d="M54.6995 38.1938V42.6607H54.017L51.5546 39.6355V42.6607H50.7303V38.1938H51.4135L53.8766 41.219V38.1938L54.6995 38.1938Z" fill="#3BE6AF"/>
<path fill-rule="evenodd" clip-rule="evenodd" d="M16.6811 55.4749V44.9939C17.3998 44.9577 18.025 44.8996 18.6502 44.8982C29.5154 44.8684 40.3806 44.8635 51.2458 44.7997C52.5833 44.7919 53.9761 44.6657 55.2442 44.2745C57.8838 43.4586 59.2121 40.6291 58.6386 37.4742C58.2148 35.1451 55.9459 33.3873 53.161 33.366C47.8464 33.3256 42.5318 33.3447 37.2172 33.3504C30.7792 33.3568 25.3157 31.2084 21.961 25.5061C18.3879 19.4324 18.9592 13.2367 22.4735 7.24027C22.6202 6.99148 22.7584 6.73702 22.8895 6.47973C22.9086 6.44145 22.8675 6.3727 22.796 6.07926C22.3019 6.11469 21.7427 6.075 21.2245 6.2033C10.377 8.88541 4.05382 15.9656 2.3456 26.7564C1.92244 29.4286 1.95292 32.4205 2.72409 34.9785C4.12398 39.6198 2.82262 44.1986 3.51795 48.9214C1.53118 48.5067 0.294323 47.4272 0.124204 45.87C-0.145849 43.3991 0.0526104 40.8779 0.448839 38.356C0.51688 39.9125 0.584932 41.4697 0.652973 43.027C0.782681 43.017 0.913099 43.0078 1.04282 42.9979C1.04282 38.3524 1.53614 33.6368 0.892554 29.082C0.338976 25.1616 1.41068 21.8898 2.82262 18.5506C4.47554 14.6444 6.99959 11.3003 10.0914 8.41334C14.9984 3.83235 20.8942 1.18072 27.4967 0.48751C32.3463 -0.0214132 37.2654 0.0516018 42.1547 0.0204083C50.4215 -0.0334623 58.6883 0.0338784 66.955 0.055845C67.5334 0.0572661 68.1111 0.104752 68.7993 0.135935V11.0791C68.0926 11.0791 67.4101 11.0784 66.7275 11.0791C56.4527 11.0848 46.1779 11.0763 35.9031 11.1032C32.6525 11.1117 30.8472 12.9135 30.3255 16.5319C29.991 18.8533 31.6588 21.4227 34.0907 22.0634C35.2701 22.3739 36.5339 22.4575 37.7616 22.4745C43.1875 22.5518 48.624 22.381 54.0392 22.6496C62.2911 23.06 68.5002 28.4958 69.3139 36.876C69.8384 42.2742 68.8185 47.0778 64.74 50.8741C61.5603 53.8348 57.7271 55.4381 53.3652 55.4572C41.9095 55.5075 30.4531 55.4749 18.9975 55.4749L16.6811 55.4749Z" fill="#3BE6AF"/>
<path fill-rule="evenodd" clip-rule="evenodd" d="M8.0411 42.1043C8.03897 38.449 8.02834 34.7937 8.04252 31.1391C8.05245 28.5478 9.10289 27.3995 11.4079 27.4045C13.9653 27.4101 14.9548 28.4216 14.9647 31.1051C14.9909 38.4001 15.0221 45.6958 15.0079 52.9915C15.0022 56.0145 14.0057 57.0536 11.3682 56.9977C9.05256 56.9495 8.0815 56.0082 8.05457 53.6004C8.01204 49.7686 8.04323 45.9361 8.0411 42.1043Z" fill="#3BE6AF"/>
<path fill-rule="evenodd" clip-rule="evenodd" d="M7.2522 30.8482V53.3385C5.30938 53.8524 4.43472 53.3194 4.42054 51.4857C4.37305 45.3631 4.3695 39.2397 4.39998 33.1164C4.4092 31.2203 5.10311 30.6944 7.2522 30.8482Z" fill="#3BE6AF"/>
</g>
</svg>
