<svg width="24" height="24" viewBox="0 0 24 24" fill="none" xmlns="http://www.w3.org/2000/svg">
<path fill-rule="evenodd" clip-rule="evenodd" d="M23.999 12C23.999 18.6289 18.6269 24 12 24C5.37306 24 0 18.6289 0 12C0 5.37306 5.37306 0 12 0C18.6269 0 23.999 5.37306 23.999 12Z" fill="#39B54A"/>
<path fill-rule="evenodd" clip-rule="evenodd" d="M15.8187 9.3971C16.2434 9.82473 16.641 10.2243 17.0125 10.5989C14.9124 12.7021 12.7832 14.8312 10.674 16.9424C9.58238 15.8618 8.45168 14.7441 7.34101 13.6455C7.74061 13.2449 8.14622 12.8443 8.56285 12.4297C9.24086 13.1187 9.94092 13.8308 10.667 14.5699C12.4086 12.8202 14.1202 11.1017 15.8187 9.3971" fill="white"/>
</svg>
