<svg width="13" height="13" viewBox="0 0 13 13" fill="none" xmlns="http://www.w3.org/2000/svg">
<path fill-rule="evenodd" clip-rule="evenodd" d="M6.50006 0C2.91591 0 0 3.18107 0 7.09097V10.341C0 10.5042 0.132287 10.6364 0.295463 10.6364H1.18183V11.8183C1.18183 12.4701 1.71186 13.0001 2.36367 13.0001H3.25004C3.41334 13.0001 3.5455 12.868 3.5455 12.7046V7.38642C3.5455 7.22311 3.41334 7.09096 3.25004 7.09096H2.36367C1.71188 7.09096 1.18183 7.62098 1.18183 8.27279V7.09096C1.18183 3.83257 3.56769 1.18182 6.50006 1.18182C9.43242 1.18182 11.8183 3.83257 11.8183 7.09096V8.27279C11.8183 7.62097 11.2882 7.09096 10.6365 7.09096H9.75009C9.58678 7.09096 9.45462 7.22311 9.45462 7.38642V12.7046C9.45462 12.868 9.58678 13.0001 9.75009 13.0001H10.6365C11.2882 13.0001 11.8183 12.4701 11.8183 11.8183V10.6364H12.7047C12.8678 10.6364 13.0001 10.5042 13.0001 10.341V7.09097C13.0001 3.18107 10.0842 0 6.50006 0Z" fill="#060124"/>
</svg>
