<svg width="28" height="28" viewBox="0 0 28 28" fill="none" xmlns="http://www.w3.org/2000/svg">
<path fill-rule="evenodd" clip-rule="evenodd" d="M14 28C21.732 28 28 21.732 28 14C28 6.26801 21.732 0 14 0C6.26801 0 0 6.26801 0 14C0 21.732 6.26801 28 14 28Z" fill="#3BE6AF"/>
<path fill-rule="evenodd" clip-rule="evenodd" d="M14.3592 7C10.8527 7 8 10.1121 8 13.9373V17.1169C8 17.2765 8.12942 17.4059 8.28906 17.4059H9.15622V18.5621C9.15622 19.1998 9.67476 19.7184 10.3124 19.7184H11.1796C11.3394 19.7184 11.4687 19.5891 11.4687 19.4293V14.2263C11.4687 14.0666 11.3394 13.9373 11.1796 13.9373H10.3124C9.67478 13.9373 9.15622 14.4558 9.15622 15.0935V13.9373C9.15622 10.7495 11.4904 8.15621 14.3592 8.15621C17.228 8.15621 19.5622 10.7495 19.5622 13.9373V15.0935C19.5622 14.4558 19.0436 13.9373 18.4059 13.9373H17.5388C17.379 13.9373 17.2497 14.0666 17.2497 14.2263V19.4293C17.2497 19.5891 17.379 19.7184 17.5388 19.7184H18.4059C19.0436 19.7184 19.5622 19.1998 19.5622 18.5621V17.4059H20.4293C20.589 17.4059 20.7184 17.2765 20.7184 17.1169V13.9373C20.7183 10.1121 17.8657 7 14.3592 7Z" fill="#060124"/>
</svg>
