<svg width="26" height="26" viewBox="0 0 26 26" fill="none" xmlns="http://www.w3.org/2000/svg">
<path fill-rule="evenodd" clip-rule="evenodd" d="M12.9917 25.543C12.2914 25.543 11.6428 25.2271 11.2112 24.6752L8.61417 21.3817L4.06191 21.379C1.82238 21.379 0 19.5566 0 17.3165V4.06251C0 1.82238 1.82237 0 4.0625 0H21.9375C24.1776 0 26 1.82238 26 4.06251V12.2383C26 12.7993 25.5454 13.2539 24.9844 13.2539C24.4234 13.2539 23.9688 12.7993 23.9688 12.2383V4.06251C23.9688 2.94254 23.0575 2.03125 21.9375 2.03125H4.06251C2.94255 2.03125 2.03126 2.94254 2.03126 4.06251V17.3165C2.03126 18.4364 2.94255 19.3477 4.06251 19.3477L9.10771 19.3507C9.41855 19.3509 9.71213 19.4935 9.90454 19.7375L12.8088 23.4205C12.8681 23.4965 12.9405 23.5118 12.9919 23.5118H12.9929C13.0441 23.5116 13.1171 23.4959 13.1738 23.4223C13.1756 23.42 13.1774 23.4176 13.1791 23.4154L16.0598 19.7371C16.2524 19.4913 16.5472 19.3477 16.8594 19.3477H21.9375C23.0577 19.3477 23.9688 18.4364 23.9688 17.3165C23.9688 16.7555 24.4234 16.3008 24.9844 16.3008C25.5454 16.3008 26 16.7555 26 17.3165C26 19.5566 24.1776 21.379 21.9375 21.379H17.3541L14.7805 24.6649C14.3513 25.2203 13.703 25.5403 13.0008 25.5431C12.9979 25.5431 12.9947 25.5431 12.9917 25.5431L12.9917 25.543ZM14.0156 15.4883V10.0039C14.0156 9.44295 13.561 8.9883 13 8.9883C12.439 8.9883 11.9844 9.44295 11.9844 10.0039V15.4883C11.9844 16.0493 12.439 16.504 13 16.504C13.561 16.504 14.0156 16.0493 14.0156 15.4883H14.0156ZM13 5.48439C12.439 5.48439 11.9844 5.93904 11.9844 6.50002C11.9844 7.061 12.439 7.51565 13 7.51565C13.561 7.51565 14.0156 7.061 14.0156 6.50002C14.0156 5.93904 13.561 5.48439 13 5.48439H13Z" fill="#3BE6AF"/>
</svg>
