<svg width="26" height="20" viewBox="0 0 26 20" fill="none" xmlns="http://www.w3.org/2000/svg">
<path fill-rule="evenodd" clip-rule="evenodd" d="M23.5625 0H2.43751C1.09339 0 0 1.0934 0 2.43752V17.0625C0 18.4067 1.09339 19.5 2.43751 19.5H23.5625C24.9066 19.5 26 18.4067 26 17.0625V2.43752C26 1.0934 24.9066 0 23.5625 0ZM23.5625 1.62499C23.6729 1.62499 23.7779 1.64789 23.8739 1.68789L13 11.1124L2.12605 1.68789C2.22206 1.64794 2.32707 1.62499 2.43746 1.62499H23.5625ZM23.5625 17.875H2.43751C1.98922 17.875 1.62499 17.5108 1.62499 17.0625V3.40472L12.4676 12.8016C12.6207 12.9341 12.8104 13 13 13C13.1896 13 13.3793 12.9342 13.5324 12.8016L24.375 3.40472V17.0625C24.375 17.5108 24.0108 17.875 23.5625 17.875Z" fill="#3BE6AF"/>
</svg>
