<svg width="20" height="10" viewBox="0 0 20 10" fill="none" xmlns="http://www.w3.org/2000/svg">
<path d="M4.29289 9.70711C4.68342 10.0976 5.31658 10.0976 5.70711 9.70711C6.09763 9.31658 6.09763 8.68342 5.70711 8.29289L4.29289 9.70711ZM1.70711 4.29289C1.31658 3.90237 0.683417 3.90237 0.292893 4.29289C-0.0976311 4.68342 -0.0976311 5.31658 0.292893 5.70711L1.70711 4.29289ZM0.292893 4.29289C-0.0976311 4.68342 -0.0976311 5.31658 0.292893 5.70711C0.683417 6.09763 1.31658 6.09763 1.70711 5.70711L0.292893 4.29289ZM5.70711 1.70711C6.09763 1.31658 6.09763 0.683417 5.70711 0.292893C5.31658 -0.0976311 4.68342 -0.0976311 4.29289 0.292893L5.70711 1.70711ZM1 4C0.447715 4 0 4.44772 0 5C0 5.55228 0.447715 6 1 6V4ZM19 6C19.5523 6 20 5.55228 20 5C20 4.44772 19.5523 4 19 4V6ZM5.70711 8.29289L1.70711 4.29289L0.292893 5.70711L4.29289 9.70711L5.70711 8.29289ZM1.70711 5.70711L5.70711 1.70711L4.29289 0.292893L0.292893 4.29289L1.70711 5.70711ZM1 6H19V4H1V6Z" fill="#060124"/>
</svg>
