<svg width="9" height="17" viewBox="0 0 9 17" fill="none" xmlns="http://www.w3.org/2000/svg">
<path fill-rule="evenodd" clip-rule="evenodd" d="M8.62056 6.88964L8.34703 9.25882C8.32353 9.48259 8.13619 9.65331 7.9112 9.656H5.43848L5.42612 16.6801C5.42787 16.8533 5.29019 16.9958 5.11703 17H2.61185C2.52768 17.0001 2.44714 16.9658 2.3888 16.9051C2.33047 16.8445 2.29939 16.7626 2.30277 16.6785V9.65599H0.44822C0.203249 9.65344 0.00673354 9.45278 0.00931251 9.2078L4.43585e-05 6.83862C-0.0033909 6.5928 0.193134 6.39074 0.438952 6.38736H2.30278V4.10009C2.30278 1.445 3.87914 0 6.19114 0H8.08587C8.20418 0.00121896 8.31715 0.049504 8.39979 0.134177C8.48243 0.218849 8.52796 0.332958 8.52632 0.451268V2.44491C8.52796 2.56322 8.48243 2.67733 8.39979 2.762C8.31714 2.84668 8.20417 2.89496 8.08587 2.89618H6.92369C5.66723 2.89618 5.42305 3.51436 5.42305 4.40763V6.38736H8.18478C8.31181 6.38895 8.4321 6.44476 8.51537 6.54071C8.59864 6.63667 8.63692 6.76364 8.62059 6.88963L8.62056 6.88964Z" fill="white"/>
</svg>
