<svg width="21" height="17" viewBox="0 0 21 17" fill="none" xmlns="http://www.w3.org/2000/svg">
<path fill-rule="evenodd" clip-rule="evenodd" d="M2.625 17C1.17705 17 0 15.8558 0 14.4493V5.10022C0 3.69375 1.17705 2.54956 2.625 2.54956H5.65635L7.14735 0.37812C7.28805 0.17267 7.5138 0.03716 7.76685 0.00656L7.875 0H13.125C13.4179 0 13.6909 0.14097 13.8526 0.37812L15.3426 2.54956H18.375C19.7642 2.54956 20.916 3.60414 20.9958 4.9505L21 5.10022V14.4493C21 15.8558 19.8219 17 18.375 17H2.625ZM1.75035 5.10022V14.4493C1.75035 14.9182 2.14305 15.2996 2.625 15.2996H18.375C18.8569 15.2996 19.2496 14.9182 19.2496 14.4493V5.10022C19.2496 4.6314 18.8569 4.25 18.375 4.25H14.8753C14.5824 4.25 14.3094 4.10903 14.1467 3.87188L12.6557 1.70044H8.3433L6.85335 3.87188C6.7116 4.07733 6.48585 4.21284 6.23385 4.24344L6.12465 4.25H2.625C2.14305 4.25 1.75035 4.6314 1.75035 5.10022ZM6.12465 9.35022C6.12465 7.00611 8.08815 5.10022 10.5 5.10022C12.9118 5.10022 14.8743 7.00611 14.8743 9.35022C14.8743 11.6932 12.9118 13.6002 10.5 13.6002C8.08815 13.6002 6.12465 11.6932 6.12465 9.35022ZM7.875 9.35022C7.875 10.7556 9.0531 11.8998 10.5 11.8998C11.948 11.8998 13.125 10.7556 13.125 9.35022C13.125 7.94375 11.948 6.80066 10.5 6.80066C9.0531 6.80066 7.875 7.94376 7.875 9.35022Z" fill="#3AE5AE"/>
</svg>
