<svg width="21" height="22" viewBox="0 0 21 22" fill="none" xmlns="http://www.w3.org/2000/svg">
<path fill-rule="evenodd" clip-rule="evenodd" d="M9.79854 17.3454C9.73391 17.3454 9.67108 17.3647 9.61752 17.3998L7.65741 18.7068C7.56647 18.7673 7.51244 18.8694 7.5119 18.9788C7.51191 19.0666 7.54752 19.1493 7.60809 19.2098C7.62279 19.2245 7.63945 19.2385 7.65789 19.2505L9.61753 20.557C9.67209 20.5929 9.73481 20.6123 9.79913 20.6119L17.1091 20.6119L17.109 17.3459L9.79854 17.3454Z" fill="#3BE6AF"/>
<path fill-rule="evenodd" clip-rule="evenodd" d="M21.0001 18.9782C21.0002 18.0775 20.2675 17.3447 19.3671 17.3452L18.0884 17.3452L18.0885 20.6113L19.3671 20.6111C19.8028 20.6117 20.2129 20.4416 20.5215 20.133C20.8301 19.8244 21.0002 19.4143 21.0001 18.9782L21.0001 18.9782Z" fill="#3BE6AF"/>
<path fill-rule="evenodd" clip-rule="evenodd" d="M5.62957 20.2066H2.59828C2.23276 20.2066 2.01224 20.0026 1.91335 19.881C1.74262 19.671 1.67647 19.3977 1.732 19.131C2.62114 14.8602 6.39019 11.7412 10.7413 11.64C10.8138 11.6427 10.8864 11.6445 10.9595 11.6445C11.0332 11.6445 11.1065 11.6427 11.1796 11.6399C12.2436 11.6642 13.2829 11.8643 14.2721 12.2357C14.7148 12.402 15.2084 12.1778 15.3747 11.7351C15.5409 11.2925 15.3168 10.7988 14.8741 10.6326C14.7323 10.5793 14.5896 10.5295 14.4462 10.4822C15.8633 9.41924 16.7818 7.726 16.7818 5.82225C16.7818 2.61188 14.1699 0 10.9595 0C7.7491 0 5.13727 2.61188 5.13727 5.82225C5.13727 7.72771 6.05736 9.42229 7.47658 10.4851C6.17638 10.9131 4.95627 11.5787 3.88848 12.4571C1.93067 14.0675 0.569411 16.3137 0.0555547 18.782C-0.105494 19.5555 0.0874094 20.3499 0.584822 20.9614C1.07972 21.57 1.81361 21.9191 2.5983 21.9191H5.62959C6.10248 21.9191 6.48581 21.5357 6.48581 21.0629C6.48581 20.59 6.10248 20.2066 5.62959 20.2066H5.62957ZM6.84967 5.82224C6.84967 3.55605 8.69331 1.71241 10.9595 1.71241C13.2257 1.71241 15.0693 3.55605 15.0693 5.82224C15.0693 8.0213 13.3332 9.82238 11.1596 9.92714C11.0929 9.92594 11.0263 9.92491 10.9595 9.92491C10.8925 9.92491 10.8256 9.92589 10.7588 9.9271C8.58548 9.82204 6.84967 8.02108 6.84967 5.82224Z" fill="#3BE6AF"/>
<path fill-rule="evenodd" clip-rule="evenodd" d="M17.962 18.5832C18.5651 18.5832 19.054 18.3522 19.054 18.0671C19.054 17.7821 18.5651 17.551 17.962 17.551C17.3589 17.551 16.8701 17.7821 16.8701 18.0671C16.8701 18.3522 17.3589 18.5832 17.962 18.5832Z" fill="black"/>
</svg>
