<svg width="18" height="20" viewBox="0 0 18 20" fill="none" xmlns="http://www.w3.org/2000/svg">
<path fill-rule="evenodd" clip-rule="evenodd" d="M0.818445 19.6356C0.601275 19.6356 0.39338 19.5498 0.240215 19.396C0.0864443 19.2429 0 19.035 0 18.8178V0.817929C0 0.676018 0.0375797 0.536066 0.107571 0.412668C0.178178 0.289239 0.279824 0.186261 0.40194 0.113656C0.524722 0.0410502 0.663312 0.00211798 0.805909 0.000139568C0.947789 -0.00250504 1.08839 0.0324805 1.21314 0.101119L17.5761 9.10075C17.7048 9.17138 17.8118 9.27565 17.8857 9.40174C17.9603 9.52779 17.9999 9.67102 17.9999 9.81757C17.9999 9.96407 17.9603 10.108 17.8857 10.234C17.8118 10.3601 17.7048 10.4637 17.5761 10.5344L1.21314 19.5347C1.09171 19.6006 0.956358 19.6356 0.818445 19.6356V19.6356Z" fill="#1C1C53"/>
</svg>
