<svg width="19" height="19" viewBox="0 0 19 19" fill="none" xmlns="http://www.w3.org/2000/svg">
<path fill-rule="evenodd" clip-rule="evenodd" d="M19 4.74999C19 4.22533 18.5747 3.79999 18.05 3.79999H17.1V0.949995C17.1 0.425328 16.6747 0 16.15 0H2.84999C2.32533 0 1.9 0.425328 1.9 0.950005V3.8H0.949995C0.425328 3.8 -1.04586e-05 4.22533 1.92877e-10 4.75V18.05C1.92877e-10 18.5747 0.425328 19 0.949995 19H18.05C18.5747 19 19 18.5747 19 18.05L19 4.74999ZM3.8 1.89999H15.2V3.79999H3.8V1.89999ZM17.1 17.1H1.9V5.69999H17.1V17.1ZM11.4 6.88749C10.8753 6.88749 10.45 7.31282 10.45 7.83749V10.3873C10.1457 10.2748 9.82436 10.2156 9.5 10.2125C7.92599 10.2125 6.64999 11.4885 6.64999 13.0625C6.64999 14.6365 7.92598 15.9125 9.5 15.9125C11.074 15.9125 12.35 14.6365 12.35 13.0625V7.83749C12.35 7.31282 11.9247 6.88749 11.4 6.88749ZM9.5 14.0125C8.97533 14.0125 8.55 13.5872 8.55 13.0625C8.55 12.5378 8.97533 12.1125 9.5 12.1125C10.0247 12.1125 10.45 12.5378 10.45 13.0625C10.45 13.5872 10.0247 14.0125 9.5 14.0125Z" fill="white"/>
</svg>
