<svg width="269" height="15" viewBox="0 0 269 15" fill="none" xmlns="http://www.w3.org/2000/svg">
<path opacity="0.791105" d="M1.27474 9.66541H4.69272V10.702H-2.83287e-06V0.938345H1.27474V9.66541ZM6.70486 1.77883C6.46205 1.77883 6.2566 1.69478 6.0885 1.52669C5.9204 1.35859 5.83636 1.15314 5.83636 0.910329C5.83636 0.667521 5.9204 0.462069 6.0885 0.293971C6.2566 0.125873 6.46205 0.0418246 6.70486 0.0418246C6.93833 0.0418246 7.13444 0.125873 7.2932 0.293971C7.4613 0.462069 7.54535 0.667521 7.54535 0.910329C7.54535 1.15314 7.4613 1.35859 7.2932 1.52669C7.13444 1.69478 6.93833 1.77883 6.70486 1.77883ZM7.32122 3.02556V10.702H6.04648V3.02556H7.32122ZM12.2114 10.8281C11.623 10.8281 11.0954 10.73 10.6285 10.5339C10.1615 10.3285 9.79263 10.0483 9.52181 9.69343C9.25099 9.32922 9.10157 8.91364 9.07355 8.44671H10.3903C10.4277 8.8296 10.6051 9.14244 10.9226 9.38525C11.2495 9.62806 11.6744 9.74946 12.1974 9.74946C12.683 9.74946 13.0659 9.64207 13.346 9.42728C13.6262 9.21249 13.7663 8.94166 13.7663 8.6148C13.7663 8.27861 13.6169 8.03113 13.318 7.87237C13.0192 7.70428 12.5569 7.54085 11.9312 7.38209C11.3615 7.23267 10.8946 7.08325 10.5304 6.93383C10.1755 6.77507 9.86734 6.54627 9.60586 6.24743C9.35371 5.93925 9.22764 5.53768 9.22764 5.04273C9.22764 4.6505 9.34437 4.29096 9.57784 3.9641C9.81131 3.63725 10.1428 3.38043 10.5724 3.19366C11.002 2.99754 11.4923 2.89948 12.0433 2.89948C12.8931 2.89948 13.5795 3.11428 14.1025 3.54386C14.6254 3.97344 14.9056 4.56178 14.943 5.30888H13.6682C13.6402 4.90732 13.4768 4.58513 13.1779 4.34232C12.8884 4.09952 12.4962 3.97811 12.0012 3.97811C11.5437 3.97811 11.1794 4.07617 10.9086 4.27228C10.6378 4.4684 10.5024 4.72521 10.5024 5.04273C10.5024 5.29488 10.5818 5.505 10.7405 5.6731C10.9086 5.83185 11.1141 5.9626 11.3569 6.06532C11.609 6.15871 11.9546 6.26611 12.3935 6.38751C12.9445 6.53693 13.3927 6.68635 13.7383 6.83577C14.0838 6.97585 14.378 7.19064 14.6208 7.48015C14.8729 7.76965 15.0037 8.14787 15.013 8.6148C15.013 9.03505 14.8963 9.41327 14.6628 9.74946C14.4293 10.0857 14.0978 10.3518 13.6682 10.5479C13.248 10.7347 12.7624 10.8281 12.2114 10.8281ZM18.3674 4.07617V8.6008C18.3674 8.97435 18.4468 9.2405 18.6055 9.39926C18.7643 9.54868 19.0398 9.62339 19.432 9.62339H20.3706V10.702H19.2219C18.5122 10.702 17.9798 10.5386 17.625 10.2117C17.2701 9.88488 17.0927 9.3479 17.0927 8.6008V4.07617H16.0981V3.02556H17.0927V1.09243H18.3674V3.02556H20.3706V4.07617H18.3674ZM28.9191 6.56962C28.9191 6.81242 28.9051 7.06924 28.8771 7.34006H22.7416C22.7882 8.0965 23.0451 8.68951 23.512 9.1191C23.9883 9.53934 24.5626 9.74946 25.235 9.74946C25.786 9.74946 26.2436 9.62339 26.6078 9.37124C26.9813 9.10976 27.2428 8.76422 27.3923 8.33464H28.765C28.5596 9.0724 28.1487 9.67475 27.5323 10.1417C26.916 10.5993 26.1502 10.8281 25.235 10.8281C24.5066 10.8281 23.8529 10.6647 23.2739 10.3378C22.7042 10.0109 22.2559 9.54868 21.9291 8.951C21.6022 8.34398 21.4388 7.64357 21.4388 6.84978C21.4388 6.05598 21.5976 5.36025 21.9151 4.76257C22.2326 4.16489 22.6762 3.70729 23.2458 3.38977C23.8248 3.06291 24.4879 2.89948 25.235 2.89948C25.9634 2.89948 26.6078 3.05824 27.1681 3.37576C27.7284 3.69328 28.158 4.1322 28.4569 4.69253C28.765 5.24351 28.9191 5.86921 28.9191 6.56962ZM27.6024 6.30346C27.6024 5.81785 27.495 5.40227 27.2802 5.05674C27.0654 4.70186 26.7712 4.43571 26.3977 4.25827C26.0335 4.0715 25.6272 3.97811 25.179 3.97811C24.5346 3.97811 23.9836 4.18356 23.526 4.59447C23.0777 5.00537 22.8209 5.57504 22.7556 6.30346H27.6024ZM34.3419 2.88548C35.2758 2.88548 36.0322 3.17031 36.6112 3.73997C37.1903 4.3003 37.4798 5.11277 37.4798 6.17739V10.702H36.219V6.35949C36.219 5.59372 36.0276 5.01004 35.6447 4.60848C35.2618 4.19757 34.7388 3.99212 34.0758 3.99212C33.4034 3.99212 32.8664 4.20224 32.4648 4.62249C32.0726 5.04273 31.8765 5.65442 31.8765 6.45755V10.702H30.6018V3.02556H31.8765V4.11819C32.1286 3.72596 32.4695 3.42246 32.8991 3.20766C33.338 2.99287 33.819 2.88548 34.3419 2.88548ZM44.8515 4.07617V8.6008C44.8515 8.97435 44.9309 9.2405 45.0897 9.39926C45.2484 9.54868 45.5239 9.62339 45.9162 9.62339H46.8547V10.702H45.706C44.9963 10.702 44.464 10.5386 44.1091 10.2117C43.7542 9.88488 43.5768 9.3479 43.5768 8.6008V4.07617H42.5822V3.02556H43.5768V1.09243H44.8515V3.02556H46.8547V4.07617H44.8515ZM51.7471 10.8281C51.0281 10.8281 50.3744 10.6647 49.786 10.3378C49.207 10.0109 48.7494 9.54868 48.4132 8.951C48.0864 8.34398 47.9229 7.64357 47.9229 6.84978C47.9229 6.06532 48.091 5.37426 48.4272 4.77658C48.7728 4.16956 49.2397 3.70729 49.828 3.38977C50.4164 3.06291 51.0748 2.89948 51.8032 2.89948C52.5316 2.89948 53.19 3.06291 53.7783 3.38977C54.3667 3.70729 54.8289 4.16489 55.1651 4.76257C55.5107 5.36025 55.6834 6.05598 55.6834 6.84978C55.6834 7.64357 55.506 8.34398 55.1511 8.951C54.8056 9.54868 54.334 10.0109 53.7363 10.3378C53.1386 10.6647 52.4756 10.8281 51.7471 10.8281ZM51.7471 9.70744C52.2047 9.70744 52.6343 9.60004 53.0359 9.38525C53.4375 9.17046 53.7597 8.84827 54.0025 8.41869C54.2546 7.98911 54.3807 7.46614 54.3807 6.84978C54.3807 6.23342 54.2593 5.71045 54.0165 5.28087C53.7737 4.85128 53.4561 4.53377 53.0639 4.32831C52.6717 4.11352 52.2468 4.00613 51.7892 4.00613C51.3222 4.00613 50.8927 4.11352 50.5004 4.32831C50.1175 4.53377 49.8094 4.85128 49.5759 5.28087C49.3424 5.71045 49.2257 6.23342 49.2257 6.84978C49.2257 7.47548 49.3377 8.00312 49.5619 8.4327C49.7953 8.86228 50.1035 9.18447 50.4864 9.39926C50.8693 9.60471 51.2895 9.70744 51.7471 9.70744ZM67.7059 3.02556L63.0832 14.3161H61.7665L63.2793 10.618L60.1835 3.02556H61.5984L64.0078 9.24517L66.3892 3.02556H67.7059ZM72.3353 10.8281C71.6162 10.8281 70.9625 10.6647 70.3741 10.3378C69.7951 10.0109 69.3375 9.54868 69.0013 8.951C68.6745 8.34398 68.5111 7.64357 68.5111 6.84978C68.5111 6.06532 68.6792 5.37426 69.0154 4.77658C69.3609 4.16956 69.8278 3.70729 70.4162 3.38977C71.0045 3.06291 71.6629 2.89948 72.3913 2.89948C73.1197 2.89948 73.7781 3.06291 74.3665 3.38977C74.9548 3.70729 75.4171 4.16489 75.7533 4.76257C76.0988 5.36025 76.2716 6.05598 76.2716 6.84978C76.2716 7.64357 76.0941 8.34398 75.7393 8.951C75.3937 9.54868 74.9221 10.0109 74.3244 10.3378C73.7268 10.6647 73.0637 10.8281 72.3353 10.8281ZM72.3353 9.70744C72.7929 9.70744 73.2225 9.60004 73.624 9.38525C74.0256 9.17046 74.3478 8.84827 74.5906 8.41869C74.8427 7.98911 74.9688 7.46614 74.9688 6.84978C74.9688 6.23342 74.8474 5.71045 74.6046 5.28087C74.3618 4.85128 74.0443 4.53377 73.652 4.32831C73.2598 4.11352 72.8349 4.00613 72.3773 4.00613C71.9104 4.00613 71.4808 4.11352 71.0886 4.32831C70.7057 4.53377 70.3975 4.85128 70.164 5.28087C69.9305 5.71045 69.8138 6.23342 69.8138 6.84978C69.8138 7.47548 69.9259 8.00312 70.15 8.4327C70.3835 8.86228 70.6917 9.18447 71.0745 9.39926C71.4574 9.60471 71.8777 9.70744 72.3353 9.70744ZM84.7556 3.02556V10.702H83.4808V9.56736C83.238 9.95959 82.8972 10.2678 82.4582 10.4919C82.0287 10.7067 81.5524 10.8141 81.0294 10.8141C80.4317 10.8141 79.8947 10.6927 79.4185 10.4499C78.9422 10.1977 78.564 9.82417 78.2838 9.32922C78.013 8.83427 77.8776 8.23192 77.8776 7.52217V3.02556H79.1383V7.35407C79.1383 8.11051 79.3298 8.69418 79.7126 9.10509C80.0955 9.50666 80.6185 9.70744 81.2816 9.70744C81.9633 9.70744 82.5003 9.49732 82.8925 9.07707C83.2847 8.65683 83.4808 8.04514 83.4808 7.24201V3.02556H84.7556ZM88.1826 4.27228C88.4068 3.83336 88.7243 3.4925 89.1352 3.24969C89.5554 3.00688 90.0644 2.88548 90.6621 2.88548V4.20224H90.3259C88.8971 4.20224 88.1826 4.97736 88.1826 6.52759V10.702H86.9079V3.02556H88.1826V4.27228ZM98.992 4.07617H97.3811V10.702H96.1063V4.07617H95.1117V3.02556H96.1063V2.47924C96.1063 1.62007 96.3258 0.994378 96.7647 0.60215C97.213 0.200583 97.9274 -0.000200149 98.9079 -0.000200149V1.06442C98.3476 1.06442 97.9507 1.17648 97.7173 1.40061C97.4931 1.61541 97.3811 1.97495 97.3811 2.47924V3.02556H98.992V4.07617ZM100.002 6.83577C100.002 6.05132 100.161 5.36492 100.478 4.77658C100.796 4.17889 101.23 3.71663 101.781 3.38977C102.341 3.06291 102.962 2.89948 103.644 2.89948C104.317 2.89948 104.9 3.04424 105.395 3.33374C105.89 3.62324 106.259 3.98745 106.502 4.42637V3.02556H107.791V10.702H106.502V9.27319C106.25 9.72145 105.871 10.095 105.367 10.3938C104.872 10.6833 104.293 10.8281 103.63 10.8281C102.948 10.8281 102.332 10.66 101.781 10.3238C101.23 9.9876 100.796 9.51599 100.478 8.90898C100.161 8.30196 100.002 7.61089 100.002 6.83577ZM106.502 6.84978C106.502 6.27078 106.385 5.76648 106.152 5.3369C105.918 4.90732 105.601 4.58046 105.199 4.35633C104.807 4.12286 104.373 4.00613 103.896 4.00613C103.42 4.00613 102.986 4.11819 102.594 4.34232C102.201 4.56645 101.888 4.89331 101.655 5.32289C101.421 5.75248 101.305 6.25677 101.305 6.83577C101.305 7.42411 101.421 7.93774 101.655 8.37667C101.888 8.80625 102.201 9.13778 102.594 9.37124C102.986 9.59537 103.42 9.70744 103.896 9.70744C104.373 9.70744 104.807 9.59537 105.199 9.37124C105.601 9.13778 105.918 8.80625 106.152 8.37667C106.385 7.93774 106.502 7.42878 106.502 6.84978ZM112.802 9.52533L115.184 3.02556H116.543L113.531 10.702H112.046L109.034 3.02556H110.407L112.802 9.52533ZM121.145 10.8281C120.426 10.8281 119.772 10.6647 119.184 10.3378C118.605 10.0109 118.147 9.54868 117.811 8.951C117.484 8.34398 117.321 7.64357 117.321 6.84978C117.321 6.06532 117.489 5.37426 117.825 4.77658C118.17 4.16956 118.637 3.70729 119.226 3.38977C119.814 3.06291 120.472 2.89948 121.201 2.89948C121.929 2.89948 122.588 3.06291 123.176 3.38977C123.764 3.70729 124.227 4.16489 124.563 4.76257C124.908 5.36025 125.081 6.05598 125.081 6.84978C125.081 7.64357 124.904 8.34398 124.549 8.951C124.203 9.54868 123.732 10.0109 123.134 10.3378C122.536 10.6647 121.873 10.8281 121.145 10.8281ZM121.145 9.70744C121.602 9.70744 122.032 9.60004 122.434 9.38525C122.835 9.17046 123.157 8.84827 123.4 8.41869C123.652 7.98911 123.778 7.46614 123.778 6.84978C123.778 6.23342 123.657 5.71045 123.414 5.28087C123.171 4.85128 122.854 4.53377 122.462 4.32831C122.069 4.11352 121.645 4.00613 121.187 4.00613C120.72 4.00613 120.29 4.11352 119.898 4.32831C119.515 4.53377 119.207 4.85128 118.974 5.28087C118.74 5.71045 118.623 6.23342 118.623 6.84978C118.623 7.47548 118.735 8.00312 118.96 8.4327C119.193 8.86228 119.501 9.18447 119.884 9.39926C120.267 9.60471 120.687 9.70744 121.145 9.70744ZM133.565 3.02556V10.702H132.29V9.56736C132.048 9.95959 131.707 10.2678 131.268 10.4919C130.838 10.7067 130.362 10.8141 129.839 10.8141C129.241 10.8141 128.704 10.6927 128.228 10.4499C127.752 10.1977 127.374 9.82417 127.093 9.32922C126.823 8.83427 126.687 8.23192 126.687 7.52217V3.02556H127.948V7.35407C127.948 8.11051 128.139 8.69418 128.522 9.10509C128.905 9.50666 129.428 9.70744 130.091 9.70744C130.773 9.70744 131.31 9.49732 131.702 9.07707C132.094 8.65683 132.29 8.04514 132.29 7.24201V3.02556H133.565ZM136.992 4.27228C137.216 3.83336 137.534 3.4925 137.945 3.24969C138.365 3.00688 138.874 2.88548 139.472 2.88548V4.20224H139.135C137.707 4.20224 136.992 4.97736 136.992 6.52759V10.702H135.718V3.02556H136.992V4.27228ZM141.602 1.77883C141.359 1.77883 141.153 1.69478 140.985 1.52669C140.817 1.35859 140.733 1.15314 140.733 0.910329C140.733 0.667521 140.817 0.462069 140.985 0.293971C141.153 0.125873 141.359 0.0418246 141.602 0.0418246C141.835 0.0418246 142.031 0.125873 142.19 0.293971C142.358 0.462069 142.442 0.667521 142.442 0.910329C142.442 1.15314 142.358 1.35859 142.19 1.52669C142.031 1.69478 141.835 1.77883 141.602 1.77883ZM142.218 3.02556V10.702H140.943V3.02556H142.218ZM145.945 4.07617V8.6008C145.945 8.97435 146.025 9.2405 146.184 9.39926C146.342 9.54868 146.618 9.62339 147.01 9.62339H147.949V10.702H146.8C146.09 10.702 145.558 10.5386 145.203 10.2117C144.848 9.88488 144.671 9.3479 144.671 8.6008V4.07617H143.676V3.02556H144.671V1.09243H145.945V3.02556H147.949V4.07617H145.945ZM156.497 6.56962C156.497 6.81242 156.483 7.06924 156.455 7.34006H150.32C150.366 8.0965 150.623 8.68951 151.09 9.1191C151.566 9.53934 152.141 9.74946 152.813 9.74946C153.364 9.74946 153.822 9.62339 154.186 9.37124C154.559 9.10976 154.821 8.76422 154.97 8.33464H156.343C156.138 9.0724 155.727 9.67475 155.11 10.1417C154.494 10.5993 153.728 10.8281 152.813 10.8281C152.085 10.8281 151.431 10.6647 150.852 10.3378C150.282 10.0109 149.834 9.54868 149.507 8.951C149.18 8.34398 149.017 7.64357 149.017 6.84978C149.017 6.05598 149.176 5.36025 149.493 4.76257C149.811 4.16489 150.254 3.70729 150.824 3.38977C151.403 3.06291 152.066 2.89948 152.813 2.89948C153.541 2.89948 154.186 3.05824 154.746 3.37576C155.306 3.69328 155.736 4.1322 156.035 4.69253C156.343 5.24351 156.497 5.86921 156.497 6.56962ZM155.18 6.30346C155.18 5.81785 155.073 5.40227 154.858 5.05674C154.643 4.70186 154.349 4.43571 153.976 4.25827C153.611 4.0715 153.205 3.97811 152.757 3.97811C152.113 3.97811 151.562 4.18356 151.104 4.59447C150.656 5.00537 150.399 5.57504 150.334 6.30346H155.18ZM161.438 6.83577C161.438 6.05132 161.597 5.36492 161.914 4.77658C162.232 4.17889 162.666 3.71663 163.217 3.38977C163.777 3.06291 164.398 2.89948 165.08 2.89948C165.753 2.89948 166.336 3.04424 166.831 3.33374C167.326 3.62324 167.695 3.98745 167.938 4.42637V3.02556H169.227V10.702H167.938V9.27319C167.686 9.72145 167.307 10.095 166.803 10.3938C166.308 10.6833 165.729 10.8281 165.066 10.8281C164.384 10.8281 163.768 10.66 163.217 10.3238C162.666 9.9876 162.232 9.51599 161.914 8.90898C161.597 8.30196 161.438 7.61089 161.438 6.83577ZM167.938 6.84978C167.938 6.27078 167.821 5.76648 167.588 5.3369C167.354 4.90732 167.037 4.58046 166.635 4.35633C166.243 4.12286 165.809 4.00613 165.332 4.00613C164.856 4.00613 164.422 4.11819 164.03 4.34232C163.637 4.56645 163.325 4.89331 163.091 5.32289C162.858 5.75248 162.741 6.25677 162.741 6.83577C162.741 7.42411 162.858 7.93774 163.091 8.37667C163.325 8.80625 163.637 9.13778 164.03 9.37124C164.422 9.59537 164.856 9.70744 165.332 9.70744C165.809 9.70744 166.243 9.59537 166.635 9.37124C167.037 9.13778 167.354 8.80625 167.588 8.37667C167.821 7.93774 167.938 7.42878 167.938 6.84978ZM172.656 4.27228C172.88 3.83336 173.197 3.4925 173.608 3.24969C174.028 3.00688 174.537 2.88548 175.135 2.88548V4.20224H174.799C173.37 4.20224 172.656 4.97736 172.656 6.52759V10.702H171.381V3.02556H172.656V4.27228ZM178.161 4.07617V8.6008C178.161 8.97435 178.241 9.2405 178.4 9.39926C178.558 9.54868 178.834 9.62339 179.226 9.62339H180.165V10.702H179.016C178.306 10.702 177.774 10.5386 177.419 10.2117C177.064 9.88488 176.887 9.3479 176.887 8.6008V4.07617H175.892V3.02556H176.887V1.09243H178.161V3.02556H180.165V4.07617H178.161ZM182.367 1.77883C182.125 1.77883 181.919 1.69478 181.751 1.52669C181.583 1.35859 181.499 1.15314 181.499 0.910329C181.499 0.667521 181.583 0.462069 181.751 0.293971C181.919 0.125873 182.125 0.0418246 182.367 0.0418246C182.601 0.0418246 182.797 0.125873 182.956 0.293971C183.124 0.462069 183.208 0.667521 183.208 0.910329C183.208 1.15314 183.124 1.35859 182.956 1.52669C182.797 1.69478 182.601 1.77883 182.367 1.77883ZM182.984 3.02556V10.702H181.709V3.02556H182.984ZM187.874 10.8281C187.286 10.8281 186.758 10.73 186.291 10.5339C185.824 10.3285 185.455 10.0483 185.184 9.69343C184.914 9.32922 184.764 8.91364 184.736 8.44671H186.053C186.09 8.8296 186.268 9.14244 186.585 9.38525C186.912 9.62806 187.337 9.74946 187.86 9.74946C188.346 9.74946 188.728 9.64207 189.009 9.42728C189.289 9.21249 189.429 8.94166 189.429 8.6148C189.429 8.27861 189.279 8.03113 188.981 7.87237C188.682 7.70428 188.219 7.54085 187.594 7.38209C187.024 7.23267 186.557 7.08325 186.193 6.93383C185.838 6.77507 185.53 6.54627 185.268 6.24743C185.016 5.93925 184.89 5.53768 184.89 5.04273C184.89 4.6505 185.007 4.29096 185.24 3.9641C185.474 3.63725 185.805 3.38043 186.235 3.19366C186.665 2.99754 187.155 2.89948 187.706 2.89948C188.556 2.89948 189.242 3.11428 189.765 3.54386C190.288 3.97344 190.568 4.56178 190.606 5.30888H189.331C189.303 4.90732 189.139 4.58513 188.841 4.34232C188.551 4.09952 188.159 3.97811 187.664 3.97811C187.206 3.97811 186.842 4.07617 186.571 4.27228C186.3 4.4684 186.165 4.72521 186.165 5.04273C186.165 5.29488 186.244 5.505 186.403 5.6731C186.571 5.83185 186.777 5.9626 187.019 6.06532C187.272 6.15871 187.617 6.26611 188.056 6.38751C188.607 6.53693 189.055 6.68635 189.401 6.83577C189.746 6.97585 190.041 7.19064 190.283 7.48015C190.535 7.76965 190.666 8.14787 190.676 8.6148C190.676 9.03505 190.559 9.41327 190.325 9.74946C190.092 10.0857 189.76 10.3518 189.331 10.5479C188.911 10.7347 188.425 10.8281 187.874 10.8281ZM194.03 4.07617V8.6008C194.03 8.97435 194.109 9.2405 194.268 9.39926C194.427 9.54868 194.702 9.62339 195.095 9.62339H196.033V10.702H194.884C194.175 10.702 193.642 10.5386 193.288 10.2117C192.933 9.88488 192.755 9.3479 192.755 8.6008V4.07617H191.761V3.02556H192.755V1.09243H194.03V3.02556H196.033V4.07617H194.03ZM200.836 6.83577C200.836 6.05132 200.995 5.36492 201.312 4.77658C201.63 4.17889 202.064 3.71663 202.615 3.38977C203.175 3.06291 203.796 2.89948 204.478 2.89948C205.15 2.89948 205.734 3.04424 206.229 3.33374C206.724 3.62324 207.093 3.98745 207.336 4.42637V3.02556H208.624V10.702H207.336V9.27319C207.084 9.72145 206.705 10.095 206.201 10.3938C205.706 10.6833 205.127 10.8281 204.464 10.8281C203.782 10.8281 203.166 10.66 202.615 10.3238C202.064 9.9876 201.63 9.51599 201.312 8.90898C200.995 8.30196 200.836 7.61089 200.836 6.83577ZM207.336 6.84978C207.336 6.27078 207.219 5.76648 206.986 5.3369C206.752 4.90732 206.435 4.58046 206.033 4.35633C205.641 4.12286 205.207 4.00613 204.73 4.00613C204.254 4.00613 203.82 4.11819 203.427 4.34232C203.035 4.56645 202.722 4.89331 202.489 5.32289C202.255 5.75248 202.139 6.25677 202.139 6.83577C202.139 7.42411 202.255 7.93774 202.489 8.37667C202.722 8.80625 203.035 9.13778 203.427 9.37124C203.82 9.59537 204.254 9.70744 204.73 9.70744C205.207 9.70744 205.641 9.59537 206.033 9.37124C206.435 9.13778 206.752 8.80625 206.986 8.37667C207.219 7.93774 207.336 7.42878 207.336 6.84978ZM214.519 2.88548C215.453 2.88548 216.209 3.17031 216.788 3.73997C217.367 4.3003 217.657 5.11277 217.657 6.17739V10.702H216.396V6.35949C216.396 5.59372 216.204 5.01004 215.822 4.60848C215.439 4.19757 214.916 3.99212 214.253 3.99212C213.58 3.99212 213.043 4.20224 212.642 4.62249C212.25 5.04273 212.053 5.65442 212.053 6.45755V10.702H210.779V3.02556H212.053V4.11819C212.306 3.72596 212.646 3.42246 213.076 3.20766C213.515 2.99287 213.996 2.88548 214.519 2.88548ZM226.351 3.02556L221.728 14.3161H220.411L221.924 10.618L218.828 3.02556H220.243L222.653 9.24517L225.034 3.02556H226.351ZM237.858 3.02556L235.463 10.702H234.146L232.297 4.60848L230.448 10.702H229.131L226.722 3.02556H228.024L229.789 9.4693L231.695 3.02556H232.997L234.86 9.48331L236.597 3.02556H237.858ZM242.933 2.88548C243.512 2.88548 244.035 3.01155 244.502 3.2637C244.969 3.5065 245.334 3.87539 245.595 4.37034C245.866 4.86529 246.001 5.46764 246.001 6.17739V10.702H244.741V6.35949C244.741 5.59372 244.549 5.01004 244.166 4.60848C243.783 4.19757 243.26 3.99212 242.597 3.99212C241.925 3.99212 241.388 4.20224 240.986 4.62249C240.594 5.04273 240.398 5.65442 240.398 6.45755V10.702H239.123V0.335996H240.398V4.11819C240.65 3.72596 240.996 3.42246 241.435 3.20766C241.883 2.99287 242.382 2.88548 242.933 2.88548ZM255.088 6.56962C255.088 6.81242 255.074 7.06924 255.046 7.34006H248.91C248.957 8.0965 249.214 8.68951 249.68 9.1191C250.157 9.53934 250.731 9.74946 251.403 9.74946C251.954 9.74946 252.412 9.62339 252.776 9.37124C253.15 9.10976 253.411 8.76422 253.561 8.33464H254.934C254.728 9.0724 254.317 9.67475 253.701 10.1417C253.084 10.5993 252.319 10.8281 251.403 10.8281C250.675 10.8281 250.021 10.6647 249.442 10.3378C248.873 10.0109 248.424 9.54868 248.098 8.951C247.771 8.34398 247.607 7.64357 247.607 6.84978C247.607 6.05598 247.766 5.36025 248.084 4.76257C248.401 4.16489 248.845 3.70729 249.414 3.38977C249.993 3.06291 250.656 2.89948 251.403 2.89948C252.132 2.89948 252.776 3.05824 253.337 3.37576C253.897 3.69328 254.327 4.1322 254.625 4.69253C254.934 5.24351 255.088 5.86921 255.088 6.56962ZM253.771 6.30346C253.771 5.81785 253.663 5.40227 253.449 5.05674C253.234 4.70186 252.94 4.43571 252.566 4.25827C252.202 4.0715 251.796 3.97811 251.347 3.97811C250.703 3.97811 250.152 4.18356 249.694 4.59447C249.246 5.00537 248.989 5.57504 248.924 6.30346H253.771ZM258.045 4.27228C258.269 3.83336 258.587 3.4925 258.998 3.24969C259.418 3.00688 259.927 2.88548 260.524 2.88548V4.20224H260.188C258.759 4.20224 258.045 4.97736 258.045 6.52759V10.702H256.77V3.02556H258.045V4.27228ZM269 6.56962C269 6.81242 268.986 7.06924 268.958 7.34006H262.822C262.869 8.0965 263.126 8.68951 263.593 9.1191C264.069 9.53934 264.643 9.74946 265.316 9.74946C265.867 9.74946 266.324 9.62339 266.689 9.37124C267.062 9.10976 267.324 8.76422 267.473 8.33464H268.846C268.64 9.0724 268.23 9.67475 267.613 10.1417C266.997 10.5993 266.231 10.8281 265.316 10.8281C264.587 10.8281 263.934 10.6647 263.355 10.3378C262.785 10.0109 262.337 9.54868 262.01 8.951C261.683 8.34398 261.52 7.64357 261.52 6.84978C261.52 6.05598 261.678 5.36025 261.996 4.76257C262.313 4.16489 262.757 3.70729 263.327 3.38977C263.906 3.06291 264.569 2.89948 265.316 2.89948C266.044 2.89948 266.689 3.05824 267.249 3.37576C267.809 3.69328 268.239 4.1322 268.538 4.69253C268.846 5.24351 269 5.86921 269 6.56962ZM267.683 6.30346C267.683 5.81785 267.576 5.40227 267.361 5.05674C267.146 4.70186 266.852 4.43571 266.479 4.25827C266.114 4.0715 265.708 3.97811 265.26 3.97811C264.615 3.97811 264.064 4.18356 263.607 4.59447C263.159 5.00537 262.902 5.57504 262.836 6.30346H267.683Z" fill="white"/>
<mask id="mask0_0_99" style="mask-type:alpha" maskUnits="userSpaceOnUse" x="0" y="0" width="269" height="15">
<path d="M1.27474 9.66541H4.69272V10.702H-2.83287e-06V0.938345H1.27474V9.66541ZM6.70486 1.77883C6.46205 1.77883 6.2566 1.69478 6.0885 1.52669C5.9204 1.35859 5.83636 1.15314 5.83636 0.910329C5.83636 0.667521 5.9204 0.462069 6.0885 0.293971C6.2566 0.125873 6.46205 0.0418246 6.70486 0.0418246C6.93833 0.0418246 7.13444 0.125873 7.2932 0.293971C7.4613 0.462069 7.54535 0.667521 7.54535 0.910329C7.54535 1.15314 7.4613 1.35859 7.2932 1.52669C7.13444 1.69478 6.93833 1.77883 6.70486 1.77883ZM7.32122 3.02556V10.702H6.04648V3.02556H7.32122ZM12.2114 10.8281C11.623 10.8281 11.0954 10.73 10.6285 10.5339C10.1615 10.3285 9.79263 10.0483 9.52181 9.69343C9.25099 9.32922 9.10157 8.91364 9.07355 8.44671H10.3903C10.4277 8.8296 10.6051 9.14244 10.9226 9.38525C11.2495 9.62806 11.6744 9.74946 12.1974 9.74946C12.683 9.74946 13.0659 9.64207 13.346 9.42728C13.6262 9.21249 13.7663 8.94166 13.7663 8.6148C13.7663 8.27861 13.6169 8.03113 13.318 7.87237C13.0192 7.70428 12.5569 7.54085 11.9312 7.38209C11.3615 7.23267 10.8946 7.08325 10.5304 6.93383C10.1755 6.77507 9.86734 6.54627 9.60586 6.24743C9.35371 5.93925 9.22764 5.53768 9.22764 5.04273C9.22764 4.6505 9.34437 4.29096 9.57784 3.9641C9.81131 3.63725 10.1428 3.38043 10.5724 3.19366C11.002 2.99754 11.4923 2.89948 12.0433 2.89948C12.8931 2.89948 13.5795 3.11428 14.1025 3.54386C14.6254 3.97344 14.9056 4.56178 14.943 5.30888H13.6682C13.6402 4.90732 13.4768 4.58513 13.1779 4.34232C12.8884 4.09952 12.4962 3.97811 12.0012 3.97811C11.5437 3.97811 11.1794 4.07617 10.9086 4.27228C10.6378 4.4684 10.5024 4.72521 10.5024 5.04273C10.5024 5.29488 10.5818 5.505 10.7405 5.6731C10.9086 5.83185 11.1141 5.9626 11.3569 6.06532C11.609 6.15871 11.9546 6.26611 12.3935 6.38751C12.9445 6.53693 13.3927 6.68635 13.7383 6.83577C14.0838 6.97585 14.378 7.19064 14.6208 7.48015C14.8729 7.76965 15.0037 8.14787 15.013 8.6148C15.013 9.03505 14.8963 9.41327 14.6628 9.74946C14.4293 10.0857 14.0978 10.3518 13.6682 10.5479C13.248 10.7347 12.7624 10.8281 12.2114 10.8281ZM18.3674 4.07617V8.6008C18.3674 8.97435 18.4468 9.2405 18.6055 9.39926C18.7643 9.54868 19.0398 9.62339 19.432 9.62339H20.3706V10.702H19.2219C18.5122 10.702 17.9798 10.5386 17.625 10.2117C17.2701 9.88488 17.0927 9.3479 17.0927 8.6008V4.07617H16.0981V3.02556H17.0927V1.09243H18.3674V3.02556H20.3706V4.07617H18.3674ZM28.9191 6.56962C28.9191 6.81242 28.9051 7.06924 28.8771 7.34006H22.7416C22.7882 8.0965 23.0451 8.68951 23.512 9.1191C23.9883 9.53934 24.5626 9.74946 25.235 9.74946C25.786 9.74946 26.2436 9.62339 26.6078 9.37124C26.9813 9.10976 27.2428 8.76422 27.3923 8.33464H28.765C28.5596 9.0724 28.1487 9.67475 27.5323 10.1417C26.916 10.5993 26.1502 10.8281 25.235 10.8281C24.5066 10.8281 23.8529 10.6647 23.2739 10.3378C22.7042 10.0109 22.2559 9.54868 21.9291 8.951C21.6022 8.34398 21.4388 7.64357 21.4388 6.84978C21.4388 6.05598 21.5976 5.36025 21.9151 4.76257C22.2326 4.16489 22.6762 3.70729 23.2458 3.38977C23.8248 3.06291 24.4879 2.89948 25.235 2.89948C25.9634 2.89948 26.6078 3.05824 27.1681 3.37576C27.7284 3.69328 28.158 4.1322 28.4569 4.69253C28.765 5.24351 28.9191 5.86921 28.9191 6.56962ZM27.6024 6.30346C27.6024 5.81785 27.495 5.40227 27.2802 5.05674C27.0654 4.70186 26.7712 4.43571 26.3977 4.25827C26.0335 4.0715 25.6272 3.97811 25.179 3.97811C24.5346 3.97811 23.9836 4.18356 23.526 4.59447C23.0777 5.00537 22.8209 5.57504 22.7556 6.30346H27.6024ZM34.3419 2.88548C35.2758 2.88548 36.0322 3.17031 36.6112 3.73997C37.1903 4.3003 37.4798 5.11277 37.4798 6.17739V10.702H36.219V6.35949C36.219 5.59372 36.0276 5.01004 35.6447 4.60848C35.2618 4.19757 34.7388 3.99212 34.0758 3.99212C33.4034 3.99212 32.8664 4.20224 32.4648 4.62249C32.0726 5.04273 31.8765 5.65442 31.8765 6.45755V10.702H30.6018V3.02556H31.8765V4.11819C32.1286 3.72596 32.4695 3.42246 32.8991 3.20766C33.338 2.99287 33.819 2.88548 34.3419 2.88548ZM44.8515 4.07617V8.6008C44.8515 8.97435 44.9309 9.2405 45.0897 9.39926C45.2484 9.54868 45.5239 9.62339 45.9162 9.62339H46.8547V10.702H45.706C44.9963 10.702 44.464 10.5386 44.1091 10.2117C43.7542 9.88488 43.5768 9.3479 43.5768 8.6008V4.07617H42.5822V3.02556H43.5768V1.09243H44.8515V3.02556H46.8547V4.07617H44.8515ZM51.7471 10.8281C51.0281 10.8281 50.3744 10.6647 49.786 10.3378C49.207 10.0109 48.7494 9.54868 48.4132 8.951C48.0864 8.34398 47.9229 7.64357 47.9229 6.84978C47.9229 6.06532 48.091 5.37426 48.4272 4.77658C48.7728 4.16956 49.2397 3.70729 49.828 3.38977C50.4164 3.06291 51.0748 2.89948 51.8032 2.89948C52.5316 2.89948 53.19 3.06291 53.7783 3.38977C54.3667 3.70729 54.8289 4.16489 55.1651 4.76257C55.5107 5.36025 55.6834 6.05598 55.6834 6.84978C55.6834 7.64357 55.506 8.34398 55.1511 8.951C54.8056 9.54868 54.334 10.0109 53.7363 10.3378C53.1386 10.6647 52.4756 10.8281 51.7471 10.8281ZM51.7471 9.70744C52.2047 9.70744 52.6343 9.60004 53.0359 9.38525C53.4375 9.17046 53.7597 8.84827 54.0025 8.41869C54.2546 7.98911 54.3807 7.46614 54.3807 6.84978C54.3807 6.23342 54.2593 5.71045 54.0165 5.28087C53.7737 4.85128 53.4561 4.53377 53.0639 4.32831C52.6717 4.11352 52.2468 4.00613 51.7892 4.00613C51.3222 4.00613 50.8927 4.11352 50.5004 4.32831C50.1175 4.53377 49.8094 4.85128 49.5759 5.28087C49.3424 5.71045 49.2257 6.23342 49.2257 6.84978C49.2257 7.47548 49.3377 8.00312 49.5619 8.4327C49.7953 8.86228 50.1035 9.18447 50.4864 9.39926C50.8693 9.60471 51.2895 9.70744 51.7471 9.70744ZM67.7059 3.02556L63.0832 14.3161H61.7665L63.2793 10.618L60.1835 3.02556H61.5984L64.0078 9.24517L66.3892 3.02556H67.7059ZM72.3353 10.8281C71.6162 10.8281 70.9625 10.6647 70.3741 10.3378C69.7951 10.0109 69.3375 9.54868 69.0013 8.951C68.6745 8.34398 68.5111 7.64357 68.5111 6.84978C68.5111 6.06532 68.6792 5.37426 69.0154 4.77658C69.3609 4.16956 69.8278 3.70729 70.4162 3.38977C71.0045 3.06291 71.6629 2.89948 72.3913 2.89948C73.1197 2.89948 73.7781 3.06291 74.3665 3.38977C74.9548 3.70729 75.4171 4.16489 75.7533 4.76257C76.0988 5.36025 76.2716 6.05598 76.2716 6.84978C76.2716 7.64357 76.0941 8.34398 75.7393 8.951C75.3937 9.54868 74.9221 10.0109 74.3244 10.3378C73.7268 10.6647 73.0637 10.8281 72.3353 10.8281ZM72.3353 9.70744C72.7929 9.70744 73.2225 9.60004 73.624 9.38525C74.0256 9.17046 74.3478 8.84827 74.5906 8.41869C74.8427 7.98911 74.9688 7.46614 74.9688 6.84978C74.9688 6.23342 74.8474 5.71045 74.6046 5.28087C74.3618 4.85128 74.0443 4.53377 73.652 4.32831C73.2598 4.11352 72.8349 4.00613 72.3773 4.00613C71.9104 4.00613 71.4808 4.11352 71.0886 4.32831C70.7057 4.53377 70.3975 4.85128 70.164 5.28087C69.9305 5.71045 69.8138 6.23342 69.8138 6.84978C69.8138 7.47548 69.9259 8.00312 70.15 8.4327C70.3835 8.86228 70.6917 9.18447 71.0745 9.39926C71.4574 9.60471 71.8777 9.70744 72.3353 9.70744ZM84.7556 3.02556V10.702H83.4808V9.56736C83.238 9.95959 82.8972 10.2678 82.4582 10.4919C82.0287 10.7067 81.5524 10.8141 81.0294 10.8141C80.4317 10.8141 79.8947 10.6927 79.4185 10.4499C78.9422 10.1977 78.564 9.82417 78.2838 9.32922C78.013 8.83427 77.8776 8.23192 77.8776 7.52217V3.02556H79.1383V7.35407C79.1383 8.11051 79.3298 8.69418 79.7126 9.10509C80.0955 9.50666 80.6185 9.70744 81.2816 9.70744C81.9633 9.70744 82.5003 9.49732 82.8925 9.07707C83.2847 8.65683 83.4808 8.04514 83.4808 7.24201V3.02556H84.7556ZM88.1826 4.27228C88.4068 3.83336 88.7243 3.4925 89.1352 3.24969C89.5554 3.00688 90.0644 2.88548 90.6621 2.88548V4.20224H90.3259C88.8971 4.20224 88.1826 4.97736 88.1826 6.52759V10.702H86.9079V3.02556H88.1826V4.27228ZM98.992 4.07617H97.3811V10.702H96.1063V4.07617H95.1117V3.02556H96.1063V2.47924C96.1063 1.62007 96.3258 0.994378 96.7647 0.60215C97.213 0.200583 97.9274 -0.000200149 98.9079 -0.000200149V1.06442C98.3476 1.06442 97.9507 1.17648 97.7173 1.40061C97.4931 1.61541 97.3811 1.97495 97.3811 2.47924V3.02556H98.992V4.07617ZM100.002 6.83577C100.002 6.05132 100.161 5.36492 100.478 4.77658C100.796 4.17889 101.23 3.71663 101.781 3.38977C102.341 3.06291 102.962 2.89948 103.644 2.89948C104.317 2.89948 104.9 3.04424 105.395 3.33374C105.89 3.62324 106.259 3.98745 106.502 4.42637V3.02556H107.791V10.702H106.502V9.27319C106.25 9.72145 105.871 10.095 105.367 10.3938C104.872 10.6833 104.293 10.8281 103.63 10.8281C102.948 10.8281 102.332 10.66 101.781 10.3238C101.23 9.9876 100.796 9.51599 100.478 8.90898C100.161 8.30196 100.002 7.61089 100.002 6.83577ZM106.502 6.84978C106.502 6.27078 106.385 5.76648 106.152 5.3369C105.918 4.90732 105.601 4.58046 105.199 4.35633C104.807 4.12286 104.373 4.00613 103.896 4.00613C103.42 4.00613 102.986 4.11819 102.594 4.34232C102.201 4.56645 101.888 4.89331 101.655 5.32289C101.421 5.75248 101.305 6.25677 101.305 6.83577C101.305 7.42411 101.421 7.93774 101.655 8.37667C101.888 8.80625 102.201 9.13778 102.594 9.37124C102.986 9.59537 103.42 9.70744 103.896 9.70744C104.373 9.70744 104.807 9.59537 105.199 9.37124C105.601 9.13778 105.918 8.80625 106.152 8.37667C106.385 7.93774 106.502 7.42878 106.502 6.84978ZM112.802 9.52533L115.184 3.02556H116.543L113.531 10.702H112.046L109.034 3.02556H110.407L112.802 9.52533ZM121.145 10.8281C120.426 10.8281 119.772 10.6647 119.184 10.3378C118.605 10.0109 118.147 9.54868 117.811 8.951C117.484 8.34398 117.321 7.64357 117.321 6.84978C117.321 6.06532 117.489 5.37426 117.825 4.77658C118.17 4.16956 118.637 3.70729 119.226 3.38977C119.814 3.06291 120.472 2.89948 121.201 2.89948C121.929 2.89948 122.588 3.06291 123.176 3.38977C123.764 3.70729 124.227 4.16489 124.563 4.76257C124.908 5.36025 125.081 6.05598 125.081 6.84978C125.081 7.64357 124.904 8.34398 124.549 8.951C124.203 9.54868 123.732 10.0109 123.134 10.3378C122.536 10.6647 121.873 10.8281 121.145 10.8281ZM121.145 9.70744C121.602 9.70744 122.032 9.60004 122.434 9.38525C122.835 9.17046 123.157 8.84827 123.4 8.41869C123.652 7.98911 123.778 7.46614 123.778 6.84978C123.778 6.23342 123.657 5.71045 123.414 5.28087C123.171 4.85128 122.854 4.53377 122.462 4.32831C122.069 4.11352 121.645 4.00613 121.187 4.00613C120.72 4.00613 120.29 4.11352 119.898 4.32831C119.515 4.53377 119.207 4.85128 118.974 5.28087C118.74 5.71045 118.623 6.23342 118.623 6.84978C118.623 7.47548 118.735 8.00312 118.96 8.4327C119.193 8.86228 119.501 9.18447 119.884 9.39926C120.267 9.60471 120.687 9.70744 121.145 9.70744ZM133.565 3.02556V10.702H132.29V9.56736C132.048 9.95959 131.707 10.2678 131.268 10.4919C130.838 10.7067 130.362 10.8141 129.839 10.8141C129.241 10.8141 128.704 10.6927 128.228 10.4499C127.752 10.1977 127.374 9.82417 127.093 9.32922C126.823 8.83427 126.687 8.23192 126.687 7.52217V3.02556H127.948V7.35407C127.948 8.11051 128.139 8.69418 128.522 9.10509C128.905 9.50666 129.428 9.70744 130.091 9.70744C130.773 9.70744 131.31 9.49732 131.702 9.07707C132.094 8.65683 132.29 8.04514 132.29 7.24201V3.02556H133.565ZM136.992 4.27228C137.216 3.83336 137.534 3.4925 137.945 3.24969C138.365 3.00688 138.874 2.88548 139.472 2.88548V4.20224H139.135C137.707 4.20224 136.992 4.97736 136.992 6.52759V10.702H135.718V3.02556H136.992V4.27228ZM141.602 1.77883C141.359 1.77883 141.153 1.69478 140.985 1.52669C140.817 1.35859 140.733 1.15314 140.733 0.910329C140.733 0.667521 140.817 0.462069 140.985 0.293971C141.153 0.125873 141.359 0.0418246 141.602 0.0418246C141.835 0.0418246 142.031 0.125873 142.19 0.293971C142.358 0.462069 142.442 0.667521 142.442 0.910329C142.442 1.15314 142.358 1.35859 142.19 1.52669C142.031 1.69478 141.835 1.77883 141.602 1.77883ZM142.218 3.02556V10.702H140.943V3.02556H142.218ZM145.945 4.07617V8.6008C145.945 8.97435 146.025 9.2405 146.184 9.39926C146.342 9.54868 146.618 9.62339 147.01 9.62339H147.949V10.702H146.8C146.09 10.702 145.558 10.5386 145.203 10.2117C144.848 9.88488 144.671 9.3479 144.671 8.6008V4.07617H143.676V3.02556H144.671V1.09243H145.945V3.02556H147.949V4.07617H145.945ZM156.497 6.56962C156.497 6.81242 156.483 7.06924 156.455 7.34006H150.32C150.366 8.0965 150.623 8.68951 151.09 9.1191C151.566 9.53934 152.141 9.74946 152.813 9.74946C153.364 9.74946 153.822 9.62339 154.186 9.37124C154.559 9.10976 154.821 8.76422 154.97 8.33464H156.343C156.138 9.0724 155.727 9.67475 155.11 10.1417C154.494 10.5993 153.728 10.8281 152.813 10.8281C152.085 10.8281 151.431 10.6647 150.852 10.3378C150.282 10.0109 149.834 9.54868 149.507 8.951C149.18 8.34398 149.017 7.64357 149.017 6.84978C149.017 6.05598 149.176 5.36025 149.493 4.76257C149.811 4.16489 150.254 3.70729 150.824 3.38977C151.403 3.06291 152.066 2.89948 152.813 2.89948C153.541 2.89948 154.186 3.05824 154.746 3.37576C155.306 3.69328 155.736 4.1322 156.035 4.69253C156.343 5.24351 156.497 5.86921 156.497 6.56962ZM155.18 6.30346C155.18 5.81785 155.073 5.40227 154.858 5.05674C154.643 4.70186 154.349 4.43571 153.976 4.25827C153.611 4.0715 153.205 3.97811 152.757 3.97811C152.113 3.97811 151.562 4.18356 151.104 4.59447C150.656 5.00537 150.399 5.57504 150.334 6.30346H155.18ZM161.438 6.83577C161.438 6.05132 161.597 5.36492 161.914 4.77658C162.232 4.17889 162.666 3.71663 163.217 3.38977C163.777 3.06291 164.398 2.89948 165.08 2.89948C165.753 2.89948 166.336 3.04424 166.831 3.33374C167.326 3.62324 167.695 3.98745 167.938 4.42637V3.02556H169.227V10.702H167.938V9.27319C167.686 9.72145 167.307 10.095 166.803 10.3938C166.308 10.6833 165.729 10.8281 165.066 10.8281C164.384 10.8281 163.768 10.66 163.217 10.3238C162.666 9.9876 162.232 9.51599 161.914 8.90898C161.597 8.30196 161.438 7.61089 161.438 6.83577ZM167.938 6.84978C167.938 6.27078 167.821 5.76648 167.588 5.3369C167.354 4.90732 167.037 4.58046 166.635 4.35633C166.243 4.12286 165.809 4.00613 165.332 4.00613C164.856 4.00613 164.422 4.11819 164.03 4.34232C163.637 4.56645 163.325 4.89331 163.091 5.32289C162.858 5.75248 162.741 6.25677 162.741 6.83577C162.741 7.42411 162.858 7.93774 163.091 8.37667C163.325 8.80625 163.637 9.13778 164.03 9.37124C164.422 9.59537 164.856 9.70744 165.332 9.70744C165.809 9.70744 166.243 9.59537 166.635 9.37124C167.037 9.13778 167.354 8.80625 167.588 8.37667C167.821 7.93774 167.938 7.42878 167.938 6.84978ZM172.656 4.27228C172.88 3.83336 173.197 3.4925 173.608 3.24969C174.028 3.00688 174.537 2.88548 175.135 2.88548V4.20224H174.799C173.37 4.20224 172.656 4.97736 172.656 6.52759V10.702H171.381V3.02556H172.656V4.27228ZM178.161 4.07617V8.6008C178.161 8.97435 178.241 9.2405 178.4 9.39926C178.558 9.54868 178.834 9.62339 179.226 9.62339H180.165V10.702H179.016C178.306 10.702 177.774 10.5386 177.419 10.2117C177.064 9.88488 176.887 9.3479 176.887 8.6008V4.07617H175.892V3.02556H176.887V1.09243H178.161V3.02556H180.165V4.07617H178.161ZM182.367 1.77883C182.125 1.77883 181.919 1.69478 181.751 1.52669C181.583 1.35859 181.499 1.15314 181.499 0.910329C181.499 0.667521 181.583 0.462069 181.751 0.293971C181.919 0.125873 182.125 0.0418246 182.367 0.0418246C182.601 0.0418246 182.797 0.125873 182.956 0.293971C183.124 0.462069 183.208 0.667521 183.208 0.910329C183.208 1.15314 183.124 1.35859 182.956 1.52669C182.797 1.69478 182.601 1.77883 182.367 1.77883ZM182.984 3.02556V10.702H181.709V3.02556H182.984ZM187.874 10.8281C187.286 10.8281 186.758 10.73 186.291 10.5339C185.824 10.3285 185.455 10.0483 185.184 9.69343C184.914 9.32922 184.764 8.91364 184.736 8.44671H186.053C186.09 8.8296 186.268 9.14244 186.585 9.38525C186.912 9.62806 187.337 9.74946 187.86 9.74946C188.346 9.74946 188.728 9.64207 189.009 9.42728C189.289 9.21249 189.429 8.94166 189.429 8.6148C189.429 8.27861 189.279 8.03113 188.981 7.87237C188.682 7.70428 188.219 7.54085 187.594 7.38209C187.024 7.23267 186.557 7.08325 186.193 6.93383C185.838 6.77507 185.53 6.54627 185.268 6.24743C185.016 5.93925 184.89 5.53768 184.89 5.04273C184.89 4.6505 185.007 4.29096 185.24 3.9641C185.474 3.63725 185.805 3.38043 186.235 3.19366C186.665 2.99754 187.155 2.89948 187.706 2.89948C188.556 2.89948 189.242 3.11428 189.765 3.54386C190.288 3.97344 190.568 4.56178 190.606 5.30888H189.331C189.303 4.90732 189.139 4.58513 188.841 4.34232C188.551 4.09952 188.159 3.97811 187.664 3.97811C187.206 3.97811 186.842 4.07617 186.571 4.27228C186.3 4.4684 186.165 4.72521 186.165 5.04273C186.165 5.29488 186.244 5.505 186.403 5.6731C186.571 5.83185 186.777 5.9626 187.019 6.06532C187.272 6.15871 187.617 6.26611 188.056 6.38751C188.607 6.53693 189.055 6.68635 189.401 6.83577C189.746 6.97585 190.041 7.19064 190.283 7.48015C190.535 7.76965 190.666 8.14787 190.676 8.6148C190.676 9.03505 190.559 9.41327 190.325 9.74946C190.092 10.0857 189.76 10.3518 189.331 10.5479C188.911 10.7347 188.425 10.8281 187.874 10.8281ZM194.03 4.07617V8.6008C194.03 8.97435 194.109 9.2405 194.268 9.39926C194.427 9.54868 194.702 9.62339 195.095 9.62339H196.033V10.702H194.884C194.175 10.702 193.642 10.5386 193.288 10.2117C192.933 9.88488 192.755 9.3479 192.755 8.6008V4.07617H191.761V3.02556H192.755V1.09243H194.03V3.02556H196.033V4.07617H194.03ZM200.836 6.83577C200.836 6.05132 200.995 5.36492 201.312 4.77658C201.63 4.17889 202.064 3.71663 202.615 3.38977C203.175 3.06291 203.796 2.89948 204.478 2.89948C205.15 2.89948 205.734 3.04424 206.229 3.33374C206.724 3.62324 207.093 3.98745 207.336 4.42637V3.02556H208.624V10.702H207.336V9.27319C207.084 9.72145 206.705 10.095 206.201 10.3938C205.706 10.6833 205.127 10.8281 204.464 10.8281C203.782 10.8281 203.166 10.66 202.615 10.3238C202.064 9.9876 201.63 9.51599 201.312 8.90898C200.995 8.30196 200.836 7.61089 200.836 6.83577ZM207.336 6.84978C207.336 6.27078 207.219 5.76648 206.986 5.3369C206.752 4.90732 206.435 4.58046 206.033 4.35633C205.641 4.12286 205.207 4.00613 204.73 4.00613C204.254 4.00613 203.82 4.11819 203.427 4.34232C203.035 4.56645 202.722 4.89331 202.489 5.32289C202.255 5.75248 202.139 6.25677 202.139 6.83577C202.139 7.42411 202.255 7.93774 202.489 8.37667C202.722 8.80625 203.035 9.13778 203.427 9.37124C203.82 9.59537 204.254 9.70744 204.73 9.70744C205.207 9.70744 205.641 9.59537 206.033 9.37124C206.435 9.13778 206.752 8.80625 206.986 8.37667C207.219 7.93774 207.336 7.42878 207.336 6.84978ZM214.519 2.88548C215.453 2.88548 216.209 3.17031 216.788 3.73997C217.367 4.3003 217.657 5.11277 217.657 6.17739V10.702H216.396V6.35949C216.396 5.59372 216.204 5.01004 215.822 4.60848C215.439 4.19757 214.916 3.99212 214.253 3.99212C213.58 3.99212 213.043 4.20224 212.642 4.62249C212.25 5.04273 212.053 5.65442 212.053 6.45755V10.702H210.779V3.02556H212.053V4.11819C212.306 3.72596 212.646 3.42246 213.076 3.20766C213.515 2.99287 213.996 2.88548 214.519 2.88548ZM226.351 3.02556L221.728 14.3161H220.411L221.924 10.618L218.828 3.02556H220.243L222.653 9.24517L225.034 3.02556H226.351ZM237.858 3.02556L235.463 10.702H234.146L232.297 4.60848L230.448 10.702H229.131L226.722 3.02556H228.024L229.789 9.4693L231.695 3.02556H232.997L234.86 9.48331L236.597 3.02556H237.858ZM242.933 2.88548C243.512 2.88548 244.035 3.01155 244.502 3.2637C244.969 3.5065 245.334 3.87539 245.595 4.37034C245.866 4.86529 246.001 5.46764 246.001 6.17739V10.702H244.741V6.35949C244.741 5.59372 244.549 5.01004 244.166 4.60848C243.783 4.19757 243.26 3.99212 242.597 3.99212C241.925 3.99212 241.388 4.20224 240.986 4.62249C240.594 5.04273 240.398 5.65442 240.398 6.45755V10.702H239.123V0.335996H240.398V4.11819C240.65 3.72596 240.996 3.42246 241.435 3.20766C241.883 2.99287 242.382 2.88548 242.933 2.88548ZM255.088 6.56962C255.088 6.81242 255.074 7.06924 255.046 7.34006H248.91C248.957 8.0965 249.214 8.68951 249.68 9.1191C250.157 9.53934 250.731 9.74946 251.403 9.74946C251.954 9.74946 252.412 9.62339 252.776 9.37124C253.15 9.10976 253.411 8.76422 253.561 8.33464H254.934C254.728 9.0724 254.317 9.67475 253.701 10.1417C253.084 10.5993 252.319 10.8281 251.403 10.8281C250.675 10.8281 250.021 10.6647 249.442 10.3378C248.873 10.0109 248.424 9.54868 248.098 8.951C247.771 8.34398 247.607 7.64357 247.607 6.84978C247.607 6.05598 247.766 5.36025 248.084 4.76257C248.401 4.16489 248.845 3.70729 249.414 3.38977C249.993 3.06291 250.656 2.89948 251.403 2.89948C252.132 2.89948 252.776 3.05824 253.337 3.37576C253.897 3.69328 254.327 4.1322 254.625 4.69253C254.934 5.24351 255.088 5.86921 255.088 6.56962ZM253.771 6.30346C253.771 5.81785 253.663 5.40227 253.449 5.05674C253.234 4.70186 252.94 4.43571 252.566 4.25827C252.202 4.0715 251.796 3.97811 251.347 3.97811C250.703 3.97811 250.152 4.18356 249.694 4.59447C249.246 5.00537 248.989 5.57504 248.924 6.30346H253.771ZM258.045 4.27228C258.269 3.83336 258.587 3.4925 258.998 3.24969C259.418 3.00688 259.927 2.88548 260.524 2.88548V4.20224H260.188C258.759 4.20224 258.045 4.97736 258.045 6.52759V10.702H256.77V3.02556H258.045V4.27228ZM269 6.56962C269 6.81242 268.986 7.06924 268.958 7.34006H262.822C262.869 8.0965 263.126 8.68951 263.593 9.1191C264.069 9.53934 264.643 9.74946 265.316 9.74946C265.867 9.74946 266.324 9.62339 266.689 9.37124C267.062 9.10976 267.324 8.76422 267.473 8.33464H268.846C268.64 9.0724 268.23 9.67475 267.613 10.1417C266.997 10.5993 266.231 10.8281 265.316 10.8281C264.587 10.8281 263.934 10.6647 263.355 10.3378C262.785 10.0109 262.337 9.54868 262.01 8.951C261.683 8.34398 261.52 7.64357 261.52 6.84978C261.52 6.05598 261.678 5.36025 261.996 4.76257C262.313 4.16489 262.757 3.70729 263.327 3.38977C263.906 3.06291 264.569 2.89948 265.316 2.89948C266.044 2.89948 266.689 3.05824 267.249 3.37576C267.809 3.69328 268.239 4.1322 268.538 4.69253C268.846 5.24351 269 5.86921 269 6.56962ZM267.683 6.30346C267.683 5.81785 267.576 5.40227 267.361 5.05674C267.146 4.70186 266.852 4.43571 266.479 4.25827C266.114 4.0715 265.708 3.97811 265.26 3.97811C264.615 3.97811 264.064 4.18356 263.607 4.59447C263.159 5.00537 262.902 5.57504 262.836 6.30346H267.683Z" fill="white"/>
</mask>
<g mask="url(#mask0_0_99)">
</g>
</svg>
