<svg width="152" height="141" viewBox="0 0 152 141" fill="none" xmlns="http://www.w3.org/2000/svg">
<mask id="mask0_0_2726" style="mask-type:alpha" maskUnits="userSpaceOnUse" x="0" y="0" width="152" height="141">
<path fill-rule="evenodd" clip-rule="evenodd" d="M20 0H132C143.046 0 152 8.9543 152 20V121C152 132.046 143.046 141 132 141H20C8.9543 141 0 132.046 0 121V20C0 8.9543 8.9543 0 20 0Z" fill="white"/>
</mask>
<g mask="url(#mask0_0_2726)">
<g filter="url(#filter0_i_0_2726)">
<path d="M80.325 61.815L80.0242 62.2144L80.0273 62.2167L80.325 61.815ZM87.41 72.93V73.43H88.0333L87.8981 72.8215L87.41 72.93ZM77.79 72.93L77.3319 73.1304L77.463 73.43H77.79V72.93ZM73.435 67.99L73.1641 68.4104L73.175 68.4171L73.435 67.99ZM59.46 67.925L59.2041 67.4954L59.46 67.925ZM54.715 73.125L54.2678 72.9014L54.715 73.125ZM56.86 92.3L56.4978 92.6447L56.5007 92.6477L56.86 92.3ZM75.905 93.405L75.5884 93.018L75.5849 93.0209L75.905 93.405ZM80.52 85.28L81.0103 85.3781L81.1299 84.78H80.52V85.28ZM64.985 85.28H64.485V85.78H64.985V85.28ZM64.985 78.715V78.215H64.485V78.715H64.985ZM88.19 78.715H88.69V78.215H88.19V78.715ZM88.19 87.555L88.6789 87.6598L88.69 87.608V87.555H88.19ZM84.355 95.94L83.9542 95.6411L83.9509 95.6455L84.355 95.94ZM76.945 102.115L77.1686 102.562L77.1711 102.561L76.945 102.115ZM54.52 101.465L54.2684 101.897L54.2749 101.901L54.52 101.465ZM46.525 93.21L46.0821 93.4422L46.0856 93.4487L46.525 93.21ZM46.525 68.965L46.0844 68.7286L46.0834 68.7306L46.525 68.965ZM66.415 58.155C71.9201 58.155 76.4448 59.5193 80.0243 62.2144L80.6258 61.4156C76.8386 58.564 72.0899 57.155 66.415 57.155V58.155ZM80.0273 62.2167C83.6092 64.8716 85.9067 68.4701 86.9219 73.0385L87.8981 72.8215C86.8333 68.0299 84.4074 64.2184 80.6227 61.4133L80.0273 62.2167ZM87.41 72.43H77.79V73.43H87.41V72.43ZM78.2481 72.7296C77.2957 70.5527 75.7735 68.8281 73.695 67.5629L73.175 68.4171C75.0832 69.5786 76.4643 71.1473 77.3319 73.1304L78.2481 72.7296ZM73.7059 67.5697C71.663 66.2532 69.2472 65.605 66.48 65.605V66.605C69.0861 66.605 71.307 67.2135 73.1642 68.4103L73.7059 67.5697ZM66.48 65.605C63.7572 65.605 61.3268 66.2309 59.2041 67.4954L59.7159 68.3545C61.6665 67.1925 63.9161 66.605 66.48 66.605V65.605ZM59.2041 67.4954C57.08 68.7608 55.4344 70.5681 54.2678 72.9014L55.1622 73.3486C56.2489 71.1752 57.7666 69.5158 59.7159 68.3545L59.2041 67.4954ZM54.2678 72.9014C53.1 75.2369 52.525 77.9597 52.525 81.055H53.525C53.525 78.0836 54.0766 75.5197 55.1622 73.3486L54.2678 72.9014ZM52.525 81.055C52.525 85.9539 53.8288 89.84 56.4978 92.6447L57.2222 91.9553C54.7779 89.3867 53.525 85.7761 53.525 81.055H52.525ZM56.5007 92.6477C59.2129 95.4503 62.8845 96.83 67.455 96.83V95.83C63.0988 95.83 59.7071 94.523 57.2193 91.9523L56.5007 92.6477ZM67.455 96.83C70.8551 96.83 73.7877 95.8203 76.2251 93.7891L75.5849 93.0209C73.3423 94.8897 70.6416 95.83 67.455 95.83V96.83ZM76.2216 93.792C78.7076 91.758 80.2978 88.9405 81.0103 85.3781L80.0297 85.1819C79.3555 88.5528 77.8691 91.152 75.5884 93.018L76.2216 93.792ZM80.52 84.78H64.985V85.78H80.52V84.78ZM65.485 85.28V78.715H64.485V85.28H65.485ZM64.985 79.215H88.19V78.215H64.985V79.215ZM87.69 78.715V87.555H88.69V78.715H87.69ZM87.7011 87.4502C87.0666 90.4113 85.8191 93.1404 83.9542 95.6411L84.7558 96.2389C86.7042 93.6263 88.0134 90.7654 88.6789 87.6598L87.7011 87.4502ZM83.9509 95.6455C82.1382 98.1327 79.7316 100.141 76.7189 101.669L77.1711 102.561C80.3117 100.969 82.8451 98.8606 84.7591 96.2345L83.9509 95.6455ZM76.7214 101.668C73.768 103.145 70.3583 103.89 66.48 103.89V104.89C70.4883 104.89 74.0554 104.119 77.1686 102.562L76.7214 101.668ZM66.48 103.89C62.0476 103.89 58.1475 102.932 54.7651 101.029L54.2749 101.901C57.8259 103.898 61.8991 104.89 66.48 104.89V103.89ZM54.7716 101.033C51.4281 99.0861 48.8277 96.4016 46.9644 92.9713L46.0856 93.4487C48.0356 97.0384 50.7653 99.8573 54.2684 101.897L54.7716 101.033ZM46.9678 92.9778C45.1468 89.5052 44.23 85.5351 44.23 81.055H43.23C43.23 85.6749 44.1765 89.8081 46.0822 93.4422L46.9678 92.9778ZM44.23 81.055C44.23 76.5748 45.1469 72.6274 46.9666 69.1994L46.0834 68.7306C44.1765 72.3226 43.23 76.4352 43.23 81.055H44.23ZM46.9656 69.2014C48.8294 65.728 51.4296 63.023 54.7716 61.0771L54.2684 60.2129C50.7637 62.2536 48.034 65.0954 46.0844 68.7286L46.9656 69.2014ZM54.7716 61.0771C58.1085 59.1341 61.9843 58.155 66.415 58.155V57.155C61.8323 57.155 57.7782 58.1693 54.2684 60.2129L54.7716 61.0771ZM121.118 69.745L120.883 70.1866L120.886 70.188L121.118 69.745ZM127.748 76.18L127.313 76.4274L127.315 76.4302L127.748 76.18ZM127.748 95.81L128.18 96.0602L127.748 95.81ZM121.118 102.245L121.352 102.687L121.355 102.685L121.118 102.245ZM102.203 102.245L101.963 102.684L101.971 102.688L102.203 102.245ZM95.6376 95.81L95.2047 96.0602L95.6376 95.81ZM95.6376 76.18L96.0705 76.4303L96.0721 76.4273L95.6376 76.18ZM102.203 69.745L101.971 69.3019L101.968 69.3034L102.203 69.745ZM105.193 78.195L105.546 78.5486L105.55 78.5443L105.193 78.195ZM105.193 93.86L104.835 94.2093L104.839 94.2136L105.193 93.86ZM118.193 93.86L118.546 94.2136L118.55 94.2093L118.193 93.86ZM118.193 78.195L117.835 78.5443L117.839 78.5486L118.193 78.195ZM111.693 68.035C115.131 68.035 118.19 68.7559 120.883 70.1866L121.352 69.3034C118.498 67.7874 115.275 67.035 111.693 67.035V68.035ZM120.886 70.188C123.616 71.616 125.756 73.6923 127.313 76.4273L128.182 75.9326C126.532 73.0344 124.253 70.8206 121.349 69.3019L120.886 70.188ZM127.315 76.4302C128.867 79.115 129.653 82.2972 129.653 85.995H130.653C130.653 82.1528 129.835 78.7916 128.18 75.9297L127.315 76.4302ZM129.653 85.995C129.653 89.6928 128.867 92.875 127.315 95.5597L128.18 96.0602C129.835 93.1984 130.653 89.8372 130.653 85.995H129.653ZM127.315 95.5597C125.758 98.2529 123.615 100.332 120.881 101.805L121.355 102.685C124.253 101.125 126.531 98.9137 128.18 96.0602L127.315 95.5597ZM120.883 101.803C118.19 103.234 115.131 103.955 111.693 103.955V104.955C115.275 104.955 118.498 104.203 121.352 102.687L120.883 101.803ZM111.693 103.955C108.255 103.955 105.172 103.234 102.434 101.802L101.971 102.688C104.866 104.203 108.11 104.955 111.693 104.955V103.955ZM102.442 101.806C99.7506 100.334 97.6286 98.2549 96.0704 95.5597L95.2047 96.0602C96.8532 98.9118 99.1078 101.122 101.963 102.684L102.442 101.806ZM96.0704 95.5597C94.5183 92.875 93.7326 89.6928 93.7326 85.995H92.7326C92.7326 89.8372 93.5502 93.1984 95.2047 96.0602L96.0704 95.5597ZM93.7326 85.995C93.7326 82.2972 94.5183 79.115 96.0704 76.4302L95.2047 75.9297C93.5502 78.7916 92.7326 82.1528 92.7326 85.995H93.7326ZM96.0721 76.4273C97.6301 73.6903 99.7503 71.6139 102.437 70.1866L101.968 69.3034C99.1082 70.8227 96.8517 73.0364 95.203 75.9326L96.0721 76.4273ZM102.434 70.188C105.172 68.7559 108.255 68.035 111.693 68.035V67.035C108.11 67.035 104.866 67.7874 101.971 69.3019L102.434 70.188ZM111.693 74.965C109.002 74.965 106.706 75.9288 104.835 77.8457L105.55 78.5443C107.232 76.8212 109.27 75.965 111.693 75.965V74.965ZM104.839 77.8414C102.939 79.7418 102.028 82.4883 102.028 85.995H103.028C103.028 82.655 103.893 80.2016 105.546 78.5486L104.839 77.8414ZM102.028 85.995C102.028 89.5025 102.939 92.2673 104.835 94.2093L105.55 93.5107C103.893 91.8127 103.028 89.3341 103.028 85.995H102.028ZM104.839 94.2136C106.711 96.0858 109.006 97.025 111.693 97.025V96.025C109.266 96.025 107.227 95.1875 105.546 93.5064L104.839 94.2136ZM111.693 97.025C114.379 97.025 116.674 96.0858 118.546 94.2136L117.839 93.5064C116.158 95.1875 114.119 96.025 111.693 96.025V97.025ZM118.55 94.2093C120.446 92.2673 121.358 89.5025 121.358 85.995H120.358C120.358 89.3341 119.492 91.8127 117.835 93.5107L118.55 94.2093ZM121.358 85.995C121.358 82.4883 120.446 79.7418 118.546 77.8414L117.839 78.5486C119.492 80.2016 120.358 82.655 120.358 85.995H121.358ZM118.55 77.8457C116.679 75.9288 114.383 74.965 111.693 74.965V75.965C114.115 75.965 116.153 76.8212 117.835 78.5443L118.55 77.8457ZM159.575 70.85L159.895 70.4664V70.4664L159.575 70.85ZM164.515 79.69V80.19H165.111L165.007 79.6031L164.515 79.69ZM155.935 79.69L155.444 79.7881L155.525 80.19H155.935V79.69ZM144.95 80.47L144.62 80.8463L144.95 80.47ZM147.55 81.9L147.392 82.3743H147.392L147.55 81.9ZM152.035 83.135L151.916 83.6208L151.926 83.6231L152.035 83.135ZM158.665 85.085L158.475 85.5476L158.482 85.5505L158.489 85.5532L158.665 85.085ZM163.085 88.27L162.699 88.5879L162.704 88.594L162.709 88.6001L163.085 88.27ZM161.33 101.595L161.021 101.202L161.017 101.205L161.33 101.595ZM140.4 101.335L140.099 101.734L140.103 101.737L140.4 101.335ZM135.265 92.3V91.8H134.681L134.771 92.3769L135.265 92.3ZM144.04 92.3L144.536 92.2395L144.482 91.8H144.04V92.3ZM146.38 96.525L146.074 96.9204L146.082 96.9266L146.38 96.525ZM155.22 96.915L155.553 97.2876L155.558 97.2829L155.564 97.278L155.22 96.915ZM155.35 91.39L155.008 91.7548L155.013 91.7599L155.019 91.7649L155.35 91.39ZM152.685 89.895L152.527 90.3694L152.532 90.3712L152.685 89.895ZM148.2 88.66L148.318 88.1742L148.31 88.1723L148.2 88.66ZM141.635 86.84L141.451 87.3051L141.458 87.308L141.466 87.3106L141.635 86.84ZM137.345 83.785L136.963 84.1075L136.968 84.1143L137.345 83.785ZM139.165 70.46L139.481 70.847L139.165 70.46ZM149.045 68.035C153.337 68.035 156.723 69.1173 159.254 71.2336L159.895 70.4664C157.14 68.1627 153.506 67.035 149.045 67.035V68.035ZM159.254 71.2336C161.799 73.3613 163.391 76.1989 164.022 79.7769L165.007 79.6031C164.339 75.8144 162.637 72.7587 159.895 70.4664L159.254 71.2336ZM164.515 79.19H155.935V80.19H164.515V79.19ZM156.425 79.5919C156.059 77.7613 155.227 76.2709 153.92 75.1504L153.269 75.9096C154.389 76.8691 155.117 78.152 155.444 79.7881L156.425 79.5919ZM153.92 75.1504C152.597 74.0166 150.892 73.47 148.85 73.47V74.47C150.708 74.47 152.165 74.9634 153.269 75.9096L153.92 75.1504ZM148.85 73.47C147.215 73.47 145.872 73.8561 144.886 74.694L145.534 75.456C146.281 74.8205 147.364 74.47 148.85 74.47V73.47ZM144.886 74.694C143.895 75.5364 143.41 76.679 143.41 78.065H144.41C144.41 76.9377 144.791 76.087 145.534 75.456L144.886 74.694ZM143.41 78.065C143.41 79.1925 143.809 80.1362 144.62 80.8463L145.279 80.0937C144.704 79.5904 144.41 78.9308 144.41 78.065H143.41ZM144.62 80.8463C145.372 81.5042 146.3 82.0106 147.392 82.3743L147.708 81.4257C146.719 81.0961 145.914 80.6492 145.279 80.0937L144.62 80.8463ZM147.392 82.3743C148.451 82.7275 149.962 83.143 151.916 83.6207L152.153 82.6493C150.208 82.1737 148.728 81.7658 147.708 81.4257L147.392 82.3743ZM151.926 83.6231C154.641 84.2265 156.821 84.8691 158.475 85.5476L158.855 84.6224C157.128 83.9142 154.888 83.2569 152.143 82.6469L151.926 83.6231ZM158.489 85.5532C160.138 86.1714 161.539 87.18 162.699 88.5879L163.471 87.9521C162.203 86.4133 160.658 85.2986 158.84 84.6168L158.489 85.5532ZM162.709 88.6001C163.864 89.9144 164.47 91.7345 164.47 94.12H165.47C165.47 91.5655 164.819 89.4856 163.46 87.9399L162.709 88.6001ZM164.47 94.12C164.47 97.0427 163.327 99.3896 161.021 101.202L161.639 101.988C164.186 99.987 165.47 97.3506 165.47 94.12H164.47ZM161.017 101.205C158.748 103.02 155.643 103.955 151.645 103.955V104.955C155.794 104.955 159.144 103.984 161.642 101.985L161.017 101.205ZM151.645 103.955C147.036 103.955 143.403 102.931 140.697 100.933L140.103 101.737C143.03 103.899 146.893 104.955 151.645 104.955V103.955ZM140.701 100.936C138.001 98.9003 136.348 96.0113 135.759 92.2231L134.771 92.3769C135.395 96.3887 137.166 99.5231 140.099 101.734L140.701 100.936ZM135.265 92.8H144.04V91.8H135.265V92.8ZM143.543 92.3605C143.775 94.2618 144.619 95.7939 146.074 96.9204L146.686 96.1296C145.454 95.1761 144.738 93.8915 144.536 92.2395L143.543 92.3605ZM146.082 96.9266C147.534 98.0038 149.403 98.52 151.645 98.52V97.52C149.554 97.52 147.912 97.0396 146.678 96.1235L146.082 96.9266ZM151.645 98.52C153.277 98.52 154.606 98.1347 155.553 97.2876L154.886 96.5424C154.186 97.1687 153.132 97.52 151.645 97.52V98.52ZM155.564 97.278C156.494 96.3964 156.955 95.2649 156.955 93.925H155.955C155.955 95.0117 155.592 95.8736 154.876 96.552L155.564 97.278ZM156.955 93.925C156.955 92.7511 156.532 91.7661 155.681 91.0151L155.019 91.7649C155.641 92.3139 155.955 93.0189 155.955 93.925H156.955ZM155.692 91.0252C154.935 90.3155 153.977 89.7837 152.837 89.4188L152.532 90.3712C153.559 90.6997 154.378 91.1645 155.008 91.7548L155.692 91.0252ZM152.843 89.4207C151.783 89.0675 150.273 88.652 148.318 88.1743L148.081 89.1457C150.027 89.6213 151.506 90.0292 152.527 90.3693L152.843 89.4207ZM148.31 88.1723C145.634 87.568 143.467 86.9666 141.804 86.3694L141.466 87.3106C143.182 87.9268 145.392 88.5387 148.09 89.1477L148.31 88.1723ZM141.818 86.3749C140.249 85.7554 138.884 84.785 137.721 83.4557L136.968 84.1143C138.232 85.5584 139.727 86.6246 141.451 87.3051L141.818 86.3749ZM137.727 83.4626C136.655 82.1926 136.09 80.4138 136.09 78.065H135.09C135.09 80.5696 135.694 82.604 136.963 84.1074L137.727 83.4626ZM136.09 78.065C136.09 75.0927 137.216 72.7006 139.481 70.847L138.848 70.073C136.347 72.1194 135.09 74.7973 135.09 78.065H136.09ZM139.481 70.847C141.748 68.9928 144.915 68.035 149.045 68.035V67.035C144.768 67.035 141.349 68.0272 138.848 70.073L139.481 70.847Z" fill="#432FBC" fill-opacity="0.2"/>
</g>
</g>
<defs>
<filter id="filter0_i_0_2726" x="43.73" y="57.6548" width="121.24" height="49.8003" filterUnits="userSpaceOnUse" color-interpolation-filters="sRGB">
<feFlood flood-opacity="0" result="BackgroundImageFix"/>
<feBlend mode="normal" in="SourceGraphic" in2="BackgroundImageFix" result="shape"/>
<feColorMatrix in="SourceAlpha" type="matrix" values="0 0 0 0 0 0 0 0 0 0 0 0 0 0 0 0 0 0 127 0" result="hardAlpha"/>
<feOffset dy="3"/>
<feGaussianBlur stdDeviation="3"/>
<feComposite in2="hardAlpha" operator="arithmetic" k2="-1" k3="1"/>
<feColorMatrix type="matrix" values="0 0 0 0 0 0 0 0 0 0 0 0 0 0 0 0 0 0 0.160784 0"/>
<feBlend mode="normal" in2="shape" result="effect1_innerShadow_0_2726"/>
</filter>
</defs>
</svg>
