<svg width="14" height="16" viewBox="0 0 14 16" fill="none" xmlns="http://www.w3.org/2000/svg">
<path fill-rule="evenodd" clip-rule="evenodd" d="M6.99982 0C3.68611 0 0.999816 2.68629 0.999816 6V9.586L0.292816 10.293C0.00690589 10.579 -0.0786041 11.009 0.0761359 11.3827C0.230876 11.7563 0.595416 11.9999 0.999816 12H12.9998C13.404 12 13.7686 11.7564 13.9234 11.3828C14.0782 11.009 13.9927 10.579 13.7068 10.293L12.9998 9.586V6C12.9998 2.68629 10.3135 0 6.99982 0ZM6.99982 16C5.34297 16 3.99982 14.6568 3.99982 13H9.99982C9.99982 14.6568 8.65667 16 6.99982 16Z" fill="white"/>
</svg>
