<svg width="20" height="20" viewBox="0 0 20 20" fill="none" xmlns="http://www.w3.org/2000/svg">
<path fill-rule="evenodd" clip-rule="evenodd" d="M16 20C18.2091 20 20 18.2091 20 16V1C20 0.44772 19.5523 0 19 0C18.4477 0 18 0.44772 18 1V12.556C17.3946 12.1961 16.7043 12.0041 16 12C13.7909 12 12 13.7909 12 16C12 18.2091 13.7909 20 16 20ZM16 14C17.1046 14 18 14.8954 18 16C18 17.1046 17.1046 18 16 18C14.8954 18 14 17.1046 14 16C14 14.8954 14.8954 14 16 14ZM10 12.5H1C0.44772 12.5 0 12.0523 0 11.5C0 10.9477 0.44772 10.5 1 10.5H10C10.5523 10.5 11 10.9477 11 11.5C11 12.0523 10.5523 12.5 10 12.5ZM9 17C9.55229 17 10 17.4477 10 18C10 18.5523 9.55228 19 9 19H1C0.44772 19 0 18.5523 0 18C0 17.4477 0.44772 17 1 17H9ZM15 6H1C0.44772 6 0 5.55228 0 5C0 4.44772 0.44772 4 1 4H15C15.5523 4 16 4.44772 16 5C16 5.55228 15.5523 6 15 6Z" fill="white" fill-opacity="0.6"/>
</svg>
