<svg width="16" height="16" viewBox="0 0 16 16" fill="none" xmlns="http://www.w3.org/2000/svg">
<path fill-rule="evenodd" clip-rule="evenodd" d="M15.2 0H4C3.55817 0 3.2 0.35817 3.2 0.8V1.6H0.8C0.35817 1.6 0 1.95817 0 2.4V13.6C0 14.0418 0.35817 14.4 0.8 14.4H3.2V15.2C3.2 15.6418 3.55817 16 4 16H15.2C15.6418 16 16 15.6418 16 15.2V0.8C16 0.35817 15.6418 0 15.2 0ZM1.6 12.8V3.2H3.2V12.8H1.6ZM14.4 14.4H4.8V1.6H14.4V14.4ZM9.6 12.7C10.9255 12.7 12 11.6255 12 10.3V4.1C12 3.65817 11.6418 3.3 11.2 3.3C10.7582 3.3 10.4 3.65817 10.4 4.1V8.0472C10.1438 7.95245 9.87315 7.90265 9.6 7.9C8.27452 7.9 7.2 8.97452 7.2 10.3C7.2 11.6255 8.27452 12.7 9.6 12.7ZM9.6 9.5C10.0418 9.5 10.4 9.85817 10.4 10.3C10.4 10.7418 10.0418 11.1 9.6 11.1C9.15817 11.1 8.8 10.7418 8.8 10.3C8.8 9.85817 9.15817 9.5 9.6 9.5Z" fill="white"/>
</svg>
