<svg width="17" height="3" viewBox="0 0 17 3" fill="none" xmlns="http://www.w3.org/2000/svg">
<path d="M1.5 1C1.22386 1 1 1.22386 1 1.5C1 1.77614 1.22386 2 1.5 2V1ZM2.5 2C2.77614 2 3 1.77614 3 1.5C3 1.22386 2.77614 1 2.5 1V2ZM8.5 1C8.22386 1 8 1.22386 8 1.5C8 1.77614 8.22386 2 8.5 2V1ZM9.5 2C9.77614 2 10 1.77614 10 1.5C10 1.22386 9.77614 1 9.5 1V2ZM15.5 1C15.2239 1 15 1.22386 15 1.5C15 1.77614 15.2239 2 15.5 2V1ZM16.5 2C16.7761 2 17 1.77614 17 1.5C17 1.22386 16.7761 1 16.5 1V2ZM1.5 2H2.5V1H1.5V2ZM8.5 2H9.5V1H8.5V2ZM15.5 2H16.5V1H15.5V2ZM2 1.5C2 1.77614 1.77614 2 1.5 2V3C2.32842 3 3 2.32842 3 1.5H2ZM1.5 2C1.22386 2 1 1.77614 1 1.5H0C0 2.32844 0.671581 3 1.5 3V2ZM1 1.5C1 1.22386 1.22386 1 1.5 1V0C0.671581 0 0 0.671564 0 1.5H1ZM1.5 1C1.77614 1 2 1.22386 2 1.5H3C3 0.671578 2.32842 0 1.5 0V1ZM9 1.5C9 1.77614 8.77614 2 8.5 2V3C9.32844 3 10 2.32842 10 1.5H9ZM8.5 2C8.22386 2 8 1.77614 8 1.5H7C7 2.32844 7.67158 3 8.5 3V2ZM8 1.5C8 1.22386 8.22386 1 8.5 1V0C7.67158 0 7 0.671564 7 1.5H8ZM8.5 1C8.77614 1 9 1.22386 9 1.5H10C10 0.671581 9.32844 0 8.5 0V1ZM16 1.5C16 1.77614 15.7761 2 15.5 2V3C16.3284 3 17 2.32842 17 1.5H16ZM15.5 2C15.2239 2 15 1.77614 15 1.5H14C14 2.32844 14.6716 3 15.5 3V2ZM15 1.5C15 1.22386 15.2239 1 15.5 1V0C14.6716 0 14 0.671564 14 1.5H15ZM15.5 1C15.7761 1 16 1.22386 16 1.5H17C17 0.671578 16.3284 0 15.5 0V1Z" fill="#919191"/>
</svg>
