<svg width="18" height="18" viewBox="0 0 18 18" fill="none" xmlns="http://www.w3.org/2000/svg">
<path d="M12.1869 10.298C12.3821 10.1027 12.3821 9.78615 12.1869 9.59089C11.9916 9.39562 11.675 9.39562 11.4798 9.59089L12.1869 10.298ZM8.64645 12.4242C8.45118 12.6195 8.45118 12.9361 8.64645 13.1313C8.84171 13.3266 9.15829 13.3266 9.35355 13.1313L8.64645 12.4242ZM8.64645 13.1313C8.84171 13.3266 9.15829 13.3266 9.35355 13.1313C9.54882 12.9361 9.54882 12.6195 9.35355 12.4242L8.64645 13.1313ZM6.52022 9.5909C6.32496 9.39563 6.00838 9.39563 5.81312 9.5909C5.61785 9.78616 5.61785 10.1027 5.81312 10.298L6.52022 9.5909ZM8.5 12.7778C8.5 13.0539 8.72386 13.2778 9 13.2778C9.27614 13.2778 9.5 13.0539 9.5 12.7778H8.5ZM9.5 5.22222C9.5 4.94608 9.27614 4.72222 9 4.72222C8.72386 4.72222 8.5 4.94608 8.5 5.22222H9.5ZM11.4798 9.59089L8.64645 12.4242L9.35355 13.1313L12.1869 10.298L11.4798 9.59089ZM9.35355 12.4242L6.52022 9.5909L5.81312 10.298L8.64645 13.1313L9.35355 12.4242ZM9.5 12.7778V5.22222H8.5V12.7778H9.5ZM9 17C4.58172 17 1 13.4183 1 9H0C0 13.9706 4.02944 18 9 18V17ZM1 9C1 4.58172 4.58172 1 9 1V0C4.02944 0 0 4.02944 0 9H1ZM9 1C13.4183 1 17 4.58172 17 9H18C18 4.02944 13.9706 0 9 0V1ZM17 9C17 13.4183 13.4183 17 9 17V18C13.9706 18 18 13.9706 18 9H17Z" fill="white"/>
</svg>
