<svg width="25" height="12" viewBox="0 0 25 12" fill="none" xmlns="http://www.w3.org/2000/svg">
<path fill-rule="evenodd" clip-rule="evenodd" d="M0.509747 4.05657C0.228239 4.05657 0 4.26506 0 4.5222V7.40929C0 7.66643 0.228239 7.87492 0.509747 7.87492C0.791254 7.87492 1.01949 7.66643 1.01949 7.40929V4.5222C1.01949 4.26506 0.791254 4.05657 0.509747 4.05657Z" fill="white"/>
<path fill-rule="evenodd" clip-rule="evenodd" d="M2.35409 1.70447C2.07259 1.70447 1.84435 1.91295 1.84435 2.17011V9.76026C1.84435 10.0174 2.07259 10.2259 2.35409 10.2259C2.6356 10.2259 2.86384 10.0174 2.86384 9.76026V2.17011C2.86384 1.91295 2.6356 1.70447 2.35409 1.70447Z" fill="white"/>
<path fill-rule="evenodd" clip-rule="evenodd" d="M4.19745 2.51936C3.91594 2.51936 3.6877 2.72785 3.6877 2.98501V8.94539C3.6877 9.20254 3.91594 9.41103 4.19745 9.41103C4.47895 9.41103 4.70719 9.20254 4.70719 8.94539V2.98501C4.70719 2.72785 4.47895 2.51936 4.19745 2.51936Z" fill="white"/>
<path fill-rule="evenodd" clip-rule="evenodd" d="M6.0413 4.05657C5.7598 4.05657 5.53155 4.26506 5.53155 4.5222V7.40929C5.53155 7.66643 5.75978 7.87492 6.0413 7.87492C6.3228 7.87492 6.55104 7.66643 6.55104 7.40929V4.5222C6.55104 4.26506 6.32281 4.05657 6.0413 4.05657Z" fill="white"/>
<path fill-rule="evenodd" clip-rule="evenodd" d="M7.88963 0C7.60812 0 7.37988 0.208497 7.37988 0.465664V11.4644C7.37988 11.7216 7.60812 11.9301 7.88963 11.9301C8.17114 11.9301 8.39937 11.7216 8.39937 11.4644V0.465664C8.39937 0.208507 8.17113 0 7.88963 0Z" fill="white"/>
<path fill-rule="evenodd" clip-rule="evenodd" d="M9.73399 2.27246C9.45246 2.27246 9.22423 2.48094 9.22423 2.73812V9.1921C9.22423 9.44924 9.45246 9.65776 9.73399 9.65776C10.0155 9.65776 10.2437 9.44924 10.2437 9.1921V2.73812C10.2437 2.48094 10.0155 2.27246 9.73399 2.27246Z" fill="white"/>
<path fill-rule="evenodd" clip-rule="evenodd" d="M11.5694 3.05052C11.2879 3.05052 11.0596 3.25901 11.0596 3.51618V8.41486C11.0596 8.67202 11.2879 8.88052 11.5694 8.88052C11.8509 8.88052 12.0791 8.67203 12.0791 8.41486V3.51618C12.0791 3.25902 11.8509 3.05052 11.5694 3.05052Z" fill="white"/>
<path fill-rule="evenodd" clip-rule="evenodd" d="M13.4316 4.05657C13.1501 4.05657 12.9219 4.26506 12.9219 4.5222V7.40929C12.9219 7.66643 13.1501 7.87492 13.4316 7.87492C13.7131 7.87492 13.9414 7.66643 13.9414 7.40929V4.5222C13.9414 4.26506 13.7131 4.05657 13.4316 4.05657Z" fill="white"/>
<path fill-rule="evenodd" clip-rule="evenodd" d="M15.267 3.05052C14.9855 3.05052 14.7573 3.25901 14.7573 3.51618V8.41486C14.7573 8.67202 14.9855 8.88052 15.267 8.88052C15.5485 8.88052 15.7768 8.67203 15.7768 8.41486V3.51618C15.7768 3.25902 15.5485 3.05052 15.267 3.05052Z" fill="white"/>
<path fill-rule="evenodd" clip-rule="evenodd" d="M17.1103 2.27246C16.8288 2.27246 16.6006 2.48094 16.6006 2.73812V9.1921C16.6006 9.44924 16.8288 9.65776 17.1103 9.65776C17.3919 9.65776 17.6201 9.44924 17.6201 9.1921V2.73812C17.6201 2.48094 17.3919 2.27246 17.1103 2.27246Z" fill="white"/>
<path fill-rule="evenodd" clip-rule="evenodd" d="M18.9597 0C18.6782 0 18.45 0.208497 18.45 0.465664V11.4644C18.45 11.7216 18.6782 11.9301 18.9597 11.9301C19.2412 11.9301 19.4694 11.7216 19.4694 11.4644V0.465664C19.4694 0.208507 19.2412 0 18.9597 0Z" fill="white"/>
<path fill-rule="evenodd" clip-rule="evenodd" d="M20.8026 2.51936C20.5211 2.51936 20.2928 2.72785 20.2928 2.98501V8.94539C20.2928 9.20254 20.5211 9.41103 20.8026 9.41103C21.084 9.41103 21.3123 9.20254 21.3123 8.94539V2.98501C21.3123 2.72785 21.084 2.51936 20.8026 2.51936Z" fill="white"/>
<path fill-rule="evenodd" clip-rule="evenodd" d="M22.6469 4.05657C22.3654 4.05657 22.1372 4.26506 22.1372 4.5222V7.40929C22.1372 7.66643 22.3654 7.87492 22.6469 7.87492C22.9284 7.87492 23.1566 7.66643 23.1566 7.40929V4.5222C23.1566 4.26506 22.9284 4.05657 22.6469 4.05657Z" fill="white"/>
<path fill-rule="evenodd" clip-rule="evenodd" d="M24.4903 4.05657C24.2088 4.05657 23.9805 4.26506 23.9805 4.5222V7.40929C23.9805 7.66643 24.2088 7.87492 24.4903 7.87492C24.7718 7.87492 25 7.66643 25 7.40929V4.5222C25 4.26506 24.7718 4.05657 24.4903 4.05657Z" fill="white"/>
</svg>
