<svg width="21" height="22" viewBox="0 0 21 22" fill="none" xmlns="http://www.w3.org/2000/svg">
<path fill-rule="evenodd" clip-rule="evenodd" d="M3.40143 21.6792C2.9161 21.6792 2.52243 21.2855 2.52243 20.7987V12.0056H0.87911C0.529511 12.0056 0.21247 11.7962 0.072228 11.4757C-0.0670084 11.1541 -0.0014009 10.78 0.238514 10.5255L9.85851 0.267456C10.0278 0.0976625 10.2582 0 10.4996 0C10.7405 0 10.9709 0.0976625 11.1402 0.267456L20.7622 10.5255C21.0016 10.78 21.0672 11.1541 20.927 11.4757C20.7877 11.7977 20.4707 12.0056 20.1211 12.0056H18.4778V20.7987C18.4778 21.2855 18.0841 21.6777 17.5993 21.6792H3.40143ZM16.7188 19.9197V11.1251C16.7188 10.6398 17.1139 10.2461 17.5993 10.2461H18.0916L10.4996 2.15471L2.90858 10.2461H3.40143C3.88676 10.2461 4.28043 10.6398 4.28043 11.1251V19.9197H6.67705V15.7054C6.67705 13.5923 8.38899 11.8804 10.5011 11.8804C12.6127 11.8804 14.3247 13.5923 14.3247 15.7054V19.9197H16.7188ZM8.43355 15.7054L8.43505 19.9197H12.5651V15.7054C12.5651 14.564 11.6405 13.6394 10.4996 13.6394C9.35814 13.6394 8.43355 14.564 8.43355 15.7054Z" fill="black"/>
</svg>
