<svg width="16" height="19" viewBox="0 0 16 19" fill="none" xmlns="http://www.w3.org/2000/svg">
<path fill-rule="evenodd" clip-rule="evenodd" d="M13.0907 5.09095C13.0907 7.90261 10.8115 10.1819 7.99981 10.1819C5.18949 10.1787 2.9121 7.90127 2.90885 5.09095C2.90885 2.2793 5.18814 0 7.9998 0C10.8115 0 13.0907 2.2793 13.0907 5.09095ZM11.6362 5.09094C11.6362 3.08262 10.0081 1.45455 7.99981 1.45455C5.99246 1.45691 4.36577 3.08359 4.36341 5.09094C4.36341 7.09926 5.99148 8.72733 7.9998 8.72733C10.0081 8.72733 11.6362 7.09927 11.6362 5.09094ZM12.5988 9.59195C12.8813 9.30636 13.3418 9.30383 13.6273 9.58635V9.58636C15.1513 11.0853 16.0067 13.1352 16.0002 15.2728C16.0002 17.6347 11.8787 18.9092 8.00011 18.9092C4.12153 18.9092 3.46654e-05 17.6347 3.46654e-05 15.2728C-0.00623145 13.1498 0.837232 11.1126 2.34234 9.61541C2.62636 9.33139 3.08685 9.33139 3.37087 9.61541C3.65488 9.89942 3.65488 10.3599 3.37083 10.6439C2.13967 11.8685 1.44965 13.5348 1.4546 15.2713C1.4546 16.1617 4.00437 17.4546 8.00011 17.4546C11.9958 17.4546 14.5456 16.1623 14.5456 15.2728C14.5507 13.5241 13.851 11.847 12.6045 10.6205C12.3189 10.338 12.3164 9.87754 12.5988 9.59195Z" fill="#060124"/>
</svg>
