<svg width="26" height="26" viewBox="0 0 26 26" fill="none" xmlns="http://www.w3.org/2000/svg">
<path fill-rule="evenodd" clip-rule="evenodd" d="M22.9531 0H3.04687C1.36683 0 0 1.36683 0 3.04687V22.9531C0 24.6332 1.36683 26 3.04687 26H22.9531C24.6332 26 26 24.6332 26 22.9531V3.04687C26 1.36683 24.6332 0 22.9531 0ZM23.9688 22.9531C23.9688 23.5131 23.5131 23.9688 22.9531 23.9688H17.1641V15.6914H20.3018L20.8203 12.543H17.1641V10.3594C17.1641 9.49737 17.8255 8.83593 18.6875 8.83593H20.7695V5.68749H18.6875C16.1016 5.68749 14.0168 7.78222 14.0168 10.3682V12.543H10.9688V15.6914H14.0168V23.9687H3.04689C2.48687 23.9687 2.03126 23.5131 2.03126 22.9531V3.04686C2.03126 2.48685 2.48687 2.03124 3.04689 2.03124H22.9531C23.5132 2.03124 23.9688 2.48685 23.9688 3.04686L23.9688 22.9531Z" fill="#3BE6AF"/>
</svg>
