<svg width="26" height="26" viewBox="0 0 26 26" fill="none" xmlns="http://www.w3.org/2000/svg">
<path fill-rule="evenodd" clip-rule="evenodd" d="M19.4996 0H6.49987C2.92526 0 0 2.92526 0 6.49987V19.5003C0 23.0739 2.92526 26.0001 6.49987 26.0001H19.4996C23.0742 26.0001 25.9995 23.0739 25.9995 19.5003V6.49987C25.9995 2.92526 23.0742 0 19.4996 0ZM23.8328 19.5003C23.8328 21.889 21.8897 23.8334 19.4996 23.8334H6.49987C4.11085 23.8334 2.16673 21.889 2.16673 19.5003V6.49987C2.16673 4.11053 4.11085 2.16673 6.49987 2.16673H19.4996C21.8897 2.16673 23.8328 4.11053 23.8328 6.49987V19.5003Z" fill="#3BE6AF"/>
<path fill-rule="evenodd" clip-rule="evenodd" d="M20.0421 7.58286C20.9396 7.58286 21.6671 6.85533 21.6671 5.95789C21.6671 5.06044 20.9396 4.33292 20.0421 4.33292C19.1447 4.33292 18.4171 5.06044 18.4171 5.95789C18.4171 6.85533 19.1447 7.58286 20.0421 7.58286Z" fill="#3BE6AF"/>
<path fill-rule="evenodd" clip-rule="evenodd" d="M12.9997 6.49988C9.4092 6.49988 6.49988 9.40952 6.49988 12.9997C6.49988 16.5886 9.4092 19.5003 12.9997 19.5003C16.5893 19.5003 19.4996 16.5887 19.4996 12.9997C19.4996 9.40952 16.5893 6.49988 12.9997 6.49988ZM12.9997 17.3335C10.6068 17.3335 8.66661 15.3933 8.66661 12.9997C8.66661 10.6062 10.6068 8.66661 12.9997 8.66661C15.3927 8.66661 17.3329 10.6062 17.3329 12.9997C17.3329 15.3933 15.3927 17.3335 12.9997 17.3335Z" fill="#3BE6AF"/>
</svg>
