<svg width="77" height="12" viewBox="0 0 77 12" fill="none" xmlns="http://www.w3.org/2000/svg">
<path d="M0.351343 2.63532V8.57463" stroke="white" stroke-width="0.7" stroke-linecap="round"/>
<path d="M54.7189 2.63532V8.57463" stroke="white" stroke-width="0.7" stroke-linecap="round"/>
<path d="M3.54969 1.72241V9.94608" stroke="white" stroke-width="0.7" stroke-linecap="round"/>
<path d="M58.3739 1.72241V9.94608" stroke="white" stroke-width="0.7" stroke-linecap="round"/>
<path d="M7.20474 1.26572V10.4031" stroke="white" stroke-width="0.7" stroke-linecap="round"/>
<path d="M62.029 1.26572V10.4031" stroke="white" stroke-width="0.7" stroke-linecap="round"/>
<path d="M10.8598 0.351343V10.8594" stroke="white" stroke-width="0.7" stroke-linecap="round"/>
<path d="M65.684 0.351343V10.8594" stroke="white" stroke-width="0.7" stroke-linecap="round"/>
<path d="M14.5143 1.72241V9.48921" stroke="white" stroke-width="0.7" stroke-linecap="round"/>
<path d="M69.3391 1.72241V9.48921" stroke="white" stroke-width="0.7" stroke-linecap="round"/>
<path d="M18.1694 3.09202V8.57446" stroke="white" stroke-width="0.7" stroke-linecap="round"/>
<path d="M72.9936 3.09202V8.57446" stroke="white" stroke-width="0.7" stroke-linecap="round"/>
<path d="M21.8244 4.00639V7.66135" stroke="white" stroke-width="0.7" stroke-linecap="round"/>
<path d="M76.6487 4.00639V7.66135" stroke="white" stroke-width="0.7" stroke-linecap="round"/>
<path d="M25.4795 2.63532V9.0315" stroke="white" stroke-width="0.7" stroke-linecap="round"/>
<path d="M29.1345 2.17862V9.48854" stroke="white" stroke-width="0.7" stroke-linecap="round"/>
<path d="M32.7896 1.26572V10.4031" stroke="white" stroke-width="0.7" stroke-linecap="round"/>
<path d="M36.4441 0.351343V10.8594" stroke="white" stroke-width="0.7" stroke-linecap="round"/>
<path d="M40.0992 3.09202V8.11759" stroke="white" stroke-width="0.7" stroke-linecap="round"/>
<path d="M43.7542 2.17862V9.03167" stroke="white" stroke-width="0.7" stroke-linecap="round"/>
<path d="M47.4093 3.09202V8.57446" stroke="white" stroke-width="0.7" stroke-linecap="round"/>
<path d="M51.0643 4.00639V7.66135" stroke="white" stroke-width="0.7" stroke-linecap="round"/>
</svg>
