<svg width="12" height="12" viewBox="0 0 12 12" fill="none" xmlns="http://www.w3.org/2000/svg">
<path fill-rule="evenodd" clip-rule="evenodd" d="M0.29299 0.292986C0.68349 -0.0973938 1.31649 -0.0973938 1.70699 0.292986L5.99999 4.58599L10.293 0.292986C10.6834 -0.0976438 11.3166 -0.0976438 11.7071 0.292876C12.0976 0.683396 12.0976 1.31657 11.7071 1.70709L7.41399 5.99998L11.707 10.293C12.0976 10.6834 12.0976 11.3166 11.7071 11.7071C11.3166 12.0976 10.6834 12.0976 10.2929 11.7071L6 7.41398L1.707 11.707C1.31658 12.0976 0.68342 12.0976 0.29289 11.7071C-0.09763 11.3166 -0.09763 10.6834 0.29289 10.2929L4.586 5.99999L0.293 1.70699C-0.09738 1.31649 -0.09738 0.683486 0.293 0.292986H0.29299Z" fill="#060124"/>
</svg>
