<svg width="26" height="26" viewBox="0 0 26 26" fill="none" xmlns="http://www.w3.org/2000/svg">
<path fill-rule="evenodd" clip-rule="evenodd" d="M17.4644 26C17.045 26 16.703 25.658 16.703 25.2386V24.3899C16.703 22.6871 17.6345 21.122 19.1348 20.3048C18.5993 19.736 18.3041 18.9944 18.3041 18.2177C18.3041 16.5374 19.6712 15.1712 21.3515 15.1712C23.0318 15.1712 24.398 16.5374 24.398 18.2177C24.398 18.9953 24.1037 19.7369 23.5682 20.3048C25.0685 21.1211 26 22.6871 26 24.3899V25.2386C26 25.658 25.658 26 25.2377 26H17.4644ZM19.1735 22.1498C18.5633 22.7456 18.2267 23.5727 18.2267 24.4772H24.4763C24.4763 23.57 24.1388 22.742 23.5259 22.1462C22.9418 21.5774 22.1696 21.2651 21.3515 21.2651C20.5316 21.2651 19.7585 21.5792 19.1735 22.1498H19.1735ZM19.8278 18.2177C19.8278 19.0574 20.5118 19.7414 21.3515 19.7414C22.1921 19.7414 22.8752 19.0574 22.8752 18.2177C22.8752 17.378 22.1921 16.6949 21.3515 16.6949C20.5118 16.6949 19.8278 17.378 19.8278 18.2177ZM0.7614 26C0.342 26 0 25.658 0 25.2386V24.3899C0 22.6871 0.9315 21.122 2.43179 20.3048C1.89629 19.736 1.60199 18.9944 1.60199 18.2177C1.60199 16.5374 2.96818 15.1712 4.64848 15.1712C6.32787 15.1712 7.69497 16.5374 7.69497 18.2177C7.69497 18.9953 7.40067 19.7369 6.86517 20.3048C8.36546 21.1211 9.29696 22.6871 9.29696 24.3899V25.2386C9.29696 25.658 8.95496 26 8.53556 26H0.7614ZM2.47049 22.1498C1.86029 22.7456 1.52369 23.5727 1.52369 24.4772H7.77327C7.77327 23.57 7.43577 22.742 6.82287 22.1462C6.23877 21.5774 5.46657 21.2651 4.64848 21.2651C3.82858 21.2651 3.05549 21.5792 2.47049 22.1498ZM3.12479 18.2177C3.12479 19.0574 3.80789 19.7414 4.64848 19.7414C5.48908 19.7414 6.17217 19.0574 6.17217 18.2177C6.17217 17.378 5.48907 16.6949 4.64848 16.6949C3.80788 16.6949 3.12479 17.378 3.12479 18.2177ZM9.48146 20.7332C9.08096 20.6063 8.85866 20.1788 8.98556 19.7774C9.11156 19.376 9.53996 19.1546 9.94136 19.2806C10.9062 19.5866 11.9213 19.7414 12.9581 19.7414C14.0328 19.7414 15.0821 19.5758 16.0775 19.2482C16.4771 19.1168 16.9073 19.3346 17.0387 19.7342C17.1701 20.1338 16.9523 20.5649 16.5527 20.6954C15.4034 21.0734 14.1947 21.2642 12.9581 21.2642C11.7656 21.2642 10.5957 21.086 9.48146 20.7332ZM2.63789 12.545C2.85389 11.3552 3.26339 10.2015 3.85289 9.11426C4.42169 8.06576 5.13719 7.12347 5.97868 6.31257C6.28108 6.02097 6.76348 6.02997 7.05508 6.33237C7.34758 6.63567 7.33858 7.11717 7.03528 7.40967C6.30718 8.11167 5.68619 8.93066 5.19209 9.84146C4.67909 10.7856 4.32359 11.7872 4.13639 12.8177C4.06979 13.1849 3.74849 13.4432 3.38759 13.4432C2.91059 13.4432 2.55239 13.0112 2.63789 12.545ZM21.8636 12.8177C21.6755 11.7872 21.3209 10.7856 20.8079 9.84146C20.3138 8.93066 19.6928 8.11167 18.9638 7.40967C18.6614 7.11717 18.6524 6.63567 18.944 6.33237C19.2365 6.02997 19.7189 6.02097 20.0213 6.31257C20.8628 7.12347 21.5774 8.06576 22.1471 9.11426C22.7366 10.2015 23.1461 11.3552 23.3621 12.545C23.4377 12.9581 23.1632 13.3551 22.7492 13.4306C22.703 13.4391 22.6571 13.4431 22.6118 13.4431C22.2509 13.4431 21.9308 13.1848 21.8636 12.8177H21.8636ZM9.11337 10.8288C8.69307 10.8288 8.35197 10.4868 8.35197 10.0674V9.21866C8.35197 7.51587 9.28347 5.95077 10.7838 5.13358C10.2474 4.56478 9.95306 3.82318 9.95306 3.04649C9.95306 1.3671 11.3193 0 13.0005 0C14.6798 0 16.0469 1.36709 16.0469 3.04649C16.0469 3.82409 15.7517 4.56568 15.2171 5.13358C16.7165 5.95078 17.6489 7.51677 17.6489 9.21866V10.0674C17.6489 10.4868 17.3069 10.8288 16.8875 10.8288H9.11337ZM10.8225 6.97857C10.2114 7.57527 9.87566 8.40146 9.87566 9.30596H16.1252C16.1252 8.39966 15.7877 7.57167 15.1739 6.97497C14.5898 6.40707 13.8176 6.09387 13.0005 6.09387C12.1797 6.09387 11.4066 6.40797 10.8225 6.97857ZM11.4768 3.04649C11.4768 3.88709 12.1599 4.57018 13.0005 4.57018C13.8401 4.57018 14.5241 3.88708 14.5241 3.04649C14.5241 2.20679 13.8401 1.5237 13.0005 1.5237C12.1599 1.5237 11.4768 2.2068 11.4768 3.04649Z" fill="#3BE6AF"/>
</svg>
