<svg width="26" height="20" viewBox="0 0 26 20" fill="none" xmlns="http://www.w3.org/2000/svg">
<path fill-rule="evenodd" clip-rule="evenodd" d="M3.25 20C1.4573 20 0 18.6539 0 16.9992V6.00025C0 4.34558 1.4573 2.99948 3.25 2.99948H7.0031L8.8491 0.44484C9.0233 0.20313 9.3028 0.04371 9.6161 0.00771L9.75 0H16.25C16.6127 0 16.9507 0.16585 17.1509 0.44484L18.9956 2.99948H22.75C24.4699 2.99948 25.896 4.24016 25.9948 5.82411L26 6.00025V16.9992C26 18.6539 24.5414 20 22.75 20H3.25ZM2.1671 6.00025V16.9992C2.1671 17.5508 2.6533 17.9995 3.25 17.9995H22.75C23.3467 17.9995 23.8329 17.5508 23.8329 16.9992V6.00025C23.8329 5.44869 23.3467 4.99999 22.75 4.99999H18.4171C18.0544 4.99999 17.7164 4.83414 17.5149 4.55515L15.6689 2.00051H10.3298L8.4851 4.55515C8.3096 4.79686 8.0301 4.95628 7.7181 4.99228L7.5829 4.99999H3.25C2.6533 4.99999 2.1671 5.44869 2.1671 6.00025ZM7.5829 11.0002C7.5829 8.24247 10.0139 6.00025 13 6.00025C15.9861 6.00025 18.4158 8.24247 18.4158 11.0002C18.4158 13.7567 15.9861 16.0002 13 16.0002C10.0139 16.0002 7.5829 13.7567 7.5829 11.0002ZM9.75 11.0002C9.75 12.6536 11.2086 13.9997 13 13.9997C14.7927 13.9997 16.25 12.6536 16.25 11.0002C16.25 9.34558 14.7927 8.00076 13 8.00076C11.2086 8.00076 9.75 9.34558 9.75 11.0002Z" fill="white"/>
</svg>
