<svg width="27" height="27" viewBox="0 0 27 27" fill="none" xmlns="http://www.w3.org/2000/svg">
<path fill-rule="evenodd" clip-rule="evenodd" d="M13.5 27C20.952 27 27 20.952 27 13.5C27 6.048 20.952 0 13.5 0C6.048 0 0 6.048 0 13.5C0 20.952 6.048 27 13.5 27ZM18.3184 12.5359H20.2511V10.6042H22.1839V12.537H24.0998V14.4697H22.1839V16.4025H20.2511V14.4697H18.3184V12.5359ZM14.1705 8.50725L12.3412 10.2825C10.0013 7.99537 5.44838 9.6615 5.44838 13.4944C5.44838 18.693 12.8273 19.0485 13.4674 14.8444H9.65138V12.5258H16.0155C16.7377 16.3013 14.2999 20.25 9.65138 20.25V20.2511C5.90625 20.2511 2.90025 17.2294 2.90025 13.5C2.90137 7.49475 10.0249 4.65637 14.1705 8.50725Z" fill="#F44336"/>
</svg>
