<svg width="26" height="26" viewBox="0 0 26 26" fill="none" xmlns="http://www.w3.org/2000/svg">
<path fill-rule="evenodd" clip-rule="evenodd" d="M23.6364 0H2.36361C1.05823 0 0 1.05823 0 2.36361V23.6363C0 24.9418 1.05823 26 2.36361 26H23.6363C24.9418 26 26 24.9418 26 23.6364V2.36361C26 1.05823 24.9418 0 23.6364 0ZM24.8182 23.6364C24.8182 24.2891 24.289 24.8182 23.6363 24.8182H2.36362C1.71093 24.8182 1.18179 24.2891 1.18179 23.6364V2.36361C1.18179 1.71092 1.71093 1.18178 2.36362 1.18178H23.6363C24.289 1.18178 24.8182 1.71092 24.8182 2.36361V23.6364Z" fill="#3BE6AF"/>
<path fill-rule="evenodd" clip-rule="evenodd" d="M19.1751 8.45006C18.6982 8.7329 18.1767 8.93269 17.6329 9.04094C17.1697 8.55848 16.5289 8.28719 15.8601 8.29048C14.541 8.2806 13.4601 9.33511 13.4374 10.6541C13.438 10.8372 13.4598 11.0197 13.5024 11.1977C11.5596 11.106 9.74516 10.2009 8.50331 8.7041C8.29088 9.06199 8.17674 9.46973 8.17242 9.88593C8.17245 10.6884 8.57967 11.436 9.25381 11.8714C8.86882 11.8588 8.4922 11.7556 8.15469 11.57V11.5995C8.15081 12.7521 8.96707 13.7446 10.0988 13.9632C9.89062 14.0187 9.67603 14.0465 9.46063 14.0459C9.30797 14.0464 9.15564 14.0326 9.00563 14.0045C9.33191 14.9808 10.2395 15.6443 11.2688 15.6591C10.4111 16.3233 9.35769 16.6849 8.27291 16.6872C8.07541 16.687 7.87807 16.6751 7.682 16.6518C8.79401 17.3552 10.083 17.7282 11.3988 17.7272C15.1512 17.7958 18.2487 14.8094 18.3173 11.057C18.318 11.0172 18.3184 10.9775 18.3184 10.9377C18.3184 10.8372 18.3184 10.7308 18.3184 10.6304C18.7819 10.2914 19.182 9.8734 19.5002 9.39539C19.0565 9.58938 18.5866 9.71679 18.1057 9.77357C18.6119 9.47797 18.9923 9.00713 19.1751 8.45007L19.1751 8.45006Z" fill="#3BE6AF"/>
</svg>
