<svg width="54" height="40" viewBox="0 0 54 40" fill="none" xmlns="http://www.w3.org/2000/svg">
<path fill-rule="evenodd" clip-rule="evenodd" d="M0 29.5225V30.6974H2.03493V36.928H3.51391V30.6974H5.55947V29.5225H0Z" fill="white"/>
<mask id="mask0_0_1045" style="mask-type:alpha" maskUnits="userSpaceOnUse" x="0" y="0" width="54" height="40">
<path fill-rule="evenodd" clip-rule="evenodd" d="M0 0H54.0001V39.6348H0V0Z" fill="white"/>
</mask>
<g mask="url(#mask0_0_1045)">
<path fill-rule="evenodd" clip-rule="evenodd" d="M11.7907 34.3056H7.53178C7.55288 34.8232 7.69258 35.2042 7.95136 35.449C8.20999 35.6939 8.53172 35.8162 8.91642 35.8162C9.25891 35.8162 9.54395 35.7323 9.77136 35.5644C9.99842 35.3965 10.1438 35.1693 10.2065 34.8826H11.7697C11.6927 35.2882 11.5282 35.6519 11.2766 35.9735C11.0248 36.2952 10.7014 36.547 10.3064 36.7287C9.91104 36.9107 9.47236 37.0015 8.98983 37.0015C8.42341 37.0015 7.91996 36.8808 7.47929 36.6397C7.03879 36.3984 6.69612 36.0538 6.45143 35.6063C6.20644 35.159 6.08419 34.6309 6.08419 34.0224C6.08419 33.4141 6.20644 32.8843 6.45143 32.4331C6.69611 31.9823 7.03878 31.6378 7.47929 31.4001C7.91996 31.1624 8.42341 31.0433 8.98983 31.0433C9.56305 31.0433 10.065 31.1624 10.4952 31.4001C10.9253 31.6378 11.2573 31.9649 11.4917 32.3808C11.7259 32.7968 11.843 33.2708 11.843 33.8021C11.843 33.949 11.8255 34.1167 11.7906 34.3056M9.98115 32.5748C9.7119 32.3301 9.38151 32.2077 8.98984 32.2077C8.59137 32.2077 8.25549 32.3301 7.98293 32.5748C7.71018 32.8198 7.5597 33.1799 7.53179 33.6553H10.3535C10.3745 33.1799 10.2502 32.8198 9.98115 32.5748Z" fill="white"/>
<path fill-rule="evenodd" clip-rule="evenodd" d="M17.9581 31.6939C18.3565 32.1344 18.5561 32.7535 18.5561 33.5506V36.9283H17.0875V33.7184C17.0875 33.2569 16.9684 32.8987 16.7308 32.6433C16.4931 32.3881 16.1678 32.2603 15.7552 32.2603C15.3356 32.2603 15 32.3967 14.7483 32.6694C14.4963 32.9423 14.3706 33.334 14.3706 33.8442V36.9283H12.8916V31.117H14.3706V32.2814C14.5242 31.8899 14.7777 31.5838 15.131 31.3636C15.4841 31.1433 15.8918 31.033 16.353 31.033C17.0244 31.033 17.5596 31.2535 17.9581 31.6939" fill="white"/>
<path fill-rule="evenodd" clip-rule="evenodd" d="M23.3858 31.3897C23.732 31.6205 23.982 31.9314 24.136 32.3231V29.1658H25.6043V36.9279H24.136V35.7112C23.982 36.1031 23.732 36.4157 23.3858 36.6501C23.0397 36.8844 22.6217 37.0016 22.1324 37.0016C21.6427 37.0016 21.2021 36.8826 20.8107 36.6448C20.4191 36.4072 20.1131 36.0626 19.8928 35.6116C19.6724 35.1606 19.5623 34.6308 19.5623 34.0224C19.5623 33.4143 19.6724 32.8844 19.8928 32.4332C20.1131 31.9822 20.4191 31.6379 20.8107 31.4C21.2021 31.1624 21.6427 31.0436 22.1324 31.0436C22.6217 31.0436 23.0397 31.1589 23.3858 31.3897M21.4819 32.7847C21.2021 33.0855 21.0625 33.4979 21.0625 34.0224C21.0625 34.5469 21.2021 34.9579 21.4819 35.255C21.7617 35.5523 22.1324 35.7008 22.5938 35.7008C23.0413 35.7008 23.4102 35.5486 23.7004 35.2445C23.9908 34.9404 24.136 34.5329 24.136 34.0224C24.136 33.5049 23.9908 33.094 23.7004 32.7898C23.4103 32.4857 23.0413 32.3335 22.5938 32.3335C22.1324 32.3335 21.7617 32.484 21.4819 32.7847" fill="white"/>
<path fill-rule="evenodd" clip-rule="evenodd" d="M32.3604 34.3056H28.1016C28.1226 34.8232 28.2625 35.2042 28.5211 35.449C28.78 35.6939 29.1015 35.8162 29.4862 35.8162C29.8287 35.8162 30.1139 35.7323 30.3411 35.5644C30.5684 35.3965 30.7136 35.1693 30.7763 34.8826H32.3395C32.2624 35.2882 32.098 35.6519 31.8463 35.9735C31.5945 36.2952 31.2711 36.547 30.8761 36.7287C30.4808 36.9107 30.0421 37.0015 29.5596 37.0015C28.9932 37.0015 28.4897 36.8808 28.0491 36.6397C27.6086 36.3984 27.2659 36.0538 27.0212 35.6063C26.7764 35.159 26.6541 34.6309 26.6541 34.0224C26.6541 33.4141 26.7764 32.8843 27.0212 32.4331C27.2659 31.9823 27.6086 31.6378 28.0491 31.4001C28.4897 31.1624 28.9932 31.0433 29.5596 31.0433C30.133 31.0433 30.635 31.1624 31.065 31.4001C31.4951 31.6378 31.8273 31.9649 32.0614 32.3808C32.2956 32.7968 32.4127 33.2708 32.4127 33.8021C32.4127 33.949 32.3953 34.1167 32.3604 34.3056M30.5509 32.5748C30.2817 32.3301 29.9513 32.2077 29.5596 32.2077C29.1612 32.2077 28.8253 32.3301 28.5527 32.5748C28.2799 32.8198 28.1295 33.1799 28.1016 33.6553H30.9233C30.9442 33.1799 30.8202 32.8198 30.5509 32.5748Z" fill="white"/>
<path fill-rule="evenodd" clip-rule="evenodd" d="M38.2441 33.8754H36.8383V36.9282H35.8837V29.6165H38.2441C39.9644 29.6165 40.7723 30.5605 40.7723 31.7564C40.7723 32.8684 40.0589 33.8754 38.2441 33.8754ZM38.2441 33.0887C39.335 33.0887 39.7966 32.5746 39.7966 31.7564C39.7966 30.9066 39.335 30.4032 38.2441 30.4032H36.8383V33.0887H38.2441Z" fill="#DD571D"/>
<path fill-rule="evenodd" clip-rule="evenodd" d="M44.3289 31.0856C45.3989 31.0856 46.1333 31.6312 46.469 32.2291V31.18H47.4341V36.9286H46.469V35.8586C46.1227 36.4777 45.378 37.0232 44.3185 37.0232C42.7868 37.0232 41.6014 35.8167 41.6014 34.0335C41.6014 32.2396 42.7868 31.0856 44.3289 31.0856ZM44.5178 31.9143C43.4687 31.9143 42.5768 32.6801 42.5768 34.0335C42.5768 35.3865 43.4687 36.1838 44.5178 36.1838C45.5667 36.1838 46.469 35.3972 46.469 34.0438C46.469 32.7117 45.5667 31.9143 44.5178 31.9143Z" fill="#DD571D"/>
<path fill-rule="evenodd" clip-rule="evenodd" d="M53.0139 31.1791H54L50.5381 39.6342H49.5519L50.6849 36.8649L48.3665 31.1791H49.426L51.2304 35.8368L53.0139 31.1791Z" fill="#DD571D"/>
<path fill-rule="evenodd" clip-rule="evenodd" d="M34.2581 2.15746H31.4361H27.4479H26.5777C26.434 2.15746 26.3098 2.25795 26.28 2.39848L23.8437 13.8611C23.3084 16.3787 25.1771 18.7528 27.7228 18.8511C27.8178 18.8548 27.9012 18.7869 27.9211 18.694L28.8928 14.1217H34.2581C37.0827 14.1217 39.5223 12.1462 40.1096 9.38328C40.9006 5.66208 38.0625 2.15747 34.2581 2.15747" fill="#DD571D"/>
<path fill-rule="evenodd" clip-rule="evenodd" d="M27.499 21.1079L26.4621 25.9141C26.4482 25.9837 26.4462 26.0355 26.2869 26.0355V26.0375C19.9065 26.0375 15.1402 20.1466 16.4715 13.8856L18.392 4.84027L13.7571 3.85909L13.9062 3.22425L14.2923 1.56853C14.3401 1.35759 14.5491 1.2262 14.7618 1.26988L22.0916 2.83225L23.1087 3.04719C23.5346 3.13672 23.8053 3.55463 23.7158 3.98052L23.5306 4.85422V4.85821C23.5306 4.86618 23.5288 4.87615 23.5266 4.88412L21.6161 13.8C20.8399 17.456 23.6281 20.9268 27.3677 20.9268C27.4632 20.9268 27.5189 21.0164 27.4989 21.1079" fill="white"/>
<path fill-rule="evenodd" clip-rule="evenodd" d="M16.5837 1.59932e-05L15.576 1.00764L16.1674 0.360135C16.2751 0.236747 16.4098 0.116798 16.5836 0" fill="white"/>
</g>
</svg>
