<svg width="29" height="29" viewBox="0 0 29 29" fill="none" xmlns="http://www.w3.org/2000/svg">
<g filter="url(#filter0_d_0_1193)">
<path fill-rule="evenodd" clip-rule="evenodd" d="M18.4088 10.7566C18.2011 10.6726 17.991 10.5961 17.7794 10.5263C19.0771 9.55291 19.9184 8.00215 19.9184 6.25872C19.9184 3.31861 17.5264 0.926758 14.5864 0.926758C11.6463 0.926758 9.25448 3.3186 9.25448 6.25872C9.25448 8.00367 10.0971 9.55566 11.3968 10.5289C10.2061 10.9208 9.08862 11.5305 8.11078 12.3348C6.3179 13.8096 5.07129 15.8667 4.60067 18.1271C4.45319 18.8354 4.62992 19.5629 5.08538 20.1231C5.53869 20.6804 6.2107 21 6.92926 21H17.8797C18.3126 21 18.6638 20.649 18.6638 20.2159C18.6638 19.7828 18.3126 19.4318 17.8797 19.4318H6.92926C6.59448 19.4318 6.39264 19.2449 6.30197 19.1336C6.14561 18.9413 6.08511 18.691 6.13596 18.4467C6.95024 14.5354 10.402 11.6792 14.3869 11.5865C14.453 11.589 14.5195 11.5907 14.5864 11.5907C14.6536 11.5907 14.7204 11.589 14.7872 11.5865C15.8355 11.6103 16.855 11.8198 17.8209 12.2105C18.2224 12.3726 18.6794 12.1789 18.8417 11.7775C19.0041 11.376 18.8103 10.919 18.4088 10.7566L18.4088 10.7566ZM10.8227 6.25873C10.8227 4.18344 12.511 2.495 14.5864 2.495C16.6617 2.495 18.3501 4.18344 18.3501 6.25873C18.3501 8.27368 16.7585 9.92368 14.7665 10.018C14.7065 10.0171 14.6464 10.016 14.5864 10.016C14.5251 10.016 14.464 10.0168 14.4029 10.018C12.4125 9.922 10.8227 8.27261 10.8227 6.25873ZM24.623 17.426V17.6185C24.623 18.7239 23.819 19.6111 22.7404 19.7618V20.2159C22.7404 20.649 22.3892 21 21.9563 21C21.5232 21 21.1721 20.649 21.1721 20.2159V19.7828C20.1107 19.7462 19.2894 18.9166 19.2894 17.8636C19.2894 17.4305 19.6405 17.0795 20.0735 17.0795C20.5066 17.0795 20.8576 17.4305 20.8576 17.8636C20.8576 18.0953 21.0527 18.2164 21.2454 18.2164H22.4131C22.779 18.2164 23.0548 17.9593 23.0548 17.6185V17.426C23.0548 17.0778 22.773 16.805 22.4131 16.805H21.6947C20.4784 16.805 19.4891 15.8025 19.4891 14.5703V14.2844C19.4891 13.6917 19.7203 13.1391 20.1403 12.7283C20.4286 12.4462 20.7841 12.2527 21.1722 12.161V11.6299C21.1722 11.1968 21.5232 10.8458 21.9563 10.8458C22.3892 10.8458 22.7404 11.1968 22.7404 11.6299V12.134C23.6545 12.3022 24.3486 13.0863 24.3486 14.026C24.3486 14.459 23.9974 14.8101 23.5645 14.8101C23.1314 14.8101 22.7803 14.459 22.7803 14.026C22.7803 13.8023 22.5738 13.6686 22.374 13.6686H21.6947C21.3313 13.6686 21.0573 13.9334 21.0573 14.2844V14.5703C21.0573 14.9316 21.3492 15.2368 21.6947 15.2368H22.4131C23.0018 15.2368 23.5546 15.4608 23.97 15.8676C24.391 16.28 24.623 16.8335 24.623 17.426V17.426Z" fill="#3BE6AF"/>
</g>
<defs>
<filter id="filter0_d_0_1193" x="0.549805" y="0.926758" width="28.0732" height="28.0732" filterUnits="userSpaceOnUse" color-interpolation-filters="sRGB">
<feFlood flood-opacity="0" result="BackgroundImageFix"/>
<feColorMatrix in="SourceAlpha" type="matrix" values="0 0 0 0 0 0 0 0 0 0 0 0 0 0 0 0 0 0 127 0" result="hardAlpha"/>
<feOffset dy="4"/>
<feGaussianBlur stdDeviation="2"/>
<feComposite in2="hardAlpha" operator="out"/>
<feColorMatrix type="matrix" values="0 0 0 0 0 0 0 0 0 0 0 0 0 0 0 0 0 0 0.25 0"/>
<feBlend mode="normal" in2="BackgroundImageFix" result="effect1_dropShadow_0_1193"/>
<feBlend mode="normal" in="SourceGraphic" in2="effect1_dropShadow_0_1193" result="shape"/>
</filter>
</defs>
</svg>
